<?xml version="1.0" encoding="utf-8"?>
<!-- Generator: Adobe Illustrator 25.0.0, SVG Export Plug-In . SVG Version: 6.00 Build 0)  -->
<svg version="1.1" id="Layer_1" xmlns="http://www.w3.org/2000/svg" xmlns:xlink="http://www.w3.org/1999/xlink" x="0px" y="0px"
	 viewBox="0 0 128 126" style="enable-background:new 0 0 128 126;" xml:space="preserve">
<style type="text/css">
	.st0{opacity:0.3;fill:#BDC5D1;enable-background:new    ;}
	.st1{fill:#FFFFFF;}
	.st2{fill:#1877F2;}
	.st3{fill:url(#SVGID_1_);}
	.st4{fill:url(#SVGID_2_);}
	.st5{fill:url(#SVGID_3_);}
	.st6{fill:#FBBB00;}
	.st7{fill:#518EF8;}
	.st8{fill:#28B446;}
	.st9{fill:#F14336;}
	.st10{fill:#F61C0D;}
</style>
<path class="st0" d="M61.5,65.2L26.3,50.6c-2.5-1-3.7-3.9-2.7-6.4L38.3,9.1c1-2.5,3.9-3.7,6.4-2.7l35.1,14.5c2.5,1,3.7,3.9,2.7,6.4
	L67.9,62.5C66.9,65,64,66.2,61.5,65.2z"/>
<path class="st1" d="M59.9,61.5L24.8,46.9c-2.5-1-3.7-3.9-2.7-6.4L36.7,5.4c1-2.5,3.9-3.7,6.4-2.7l35.1,14.5c2.5,1,3.7,3.9,2.7,6.4
	L66.3,58.8C65.3,61.3,62.4,62.5,59.9,61.5z"/>
<path class="st0" d="M38.9,121L3.7,106.5c-2.5-1-3.7-3.9-2.7-6.4l14.5-35.1c1-2.5,3.9-3.7,6.4-2.7l35.2,14.6c2.5,1,3.7,3.9,2.7,6.4
	l-14.5,35.1C44.2,120.8,41.4,122.1,38.9,121z"/>
<path class="st1" d="M37,116.7L1.9,102.1c-2.5-1-3.7-3.9-2.7-6.4l14.5-35.1c1-2.5,3.9-3.7,6.4-2.7l35.2,14.6c2.5,1,3.7,3.9,2.7,6.4
	l-14.5,35.1C42.4,116.5,39.5,117.7,37,116.7z"/>
<path class="st0" d="M102.5,123.6l-35.1-14.5c-2.5-1-3.7-3.9-2.7-6.4l14.5-35.1c1-2.5,3.9-3.7,6.4-2.7l35.1,14.5
	c2.5,1,3.7,3.9,2.7,6.4l-14.5,35.1C107.8,123.4,105,124.6,102.5,123.6z"/>
<path class="st1" d="M100.9,120.4l-35.1-14.5c-2.5-1-3.7-3.9-2.7-6.4l14.5-35.1c1-2.5,3.9-3.7,6.4-2.7l35.1,14.5
	c2.5,1,3.7,3.9,2.7,6.4l-14.5,35.1C106.2,120.3,103.4,121.4,100.9,120.4z"/>
<path class="st0" d="M125.6,68.8L90.4,54.3c-2.5-1-3.7-3.9-2.7-6.4l14.5-35.1c1-2.5,3.9-3.7,6.4-2.7l35.1,14.5
	c2.5,1,3.7,3.9,2.7,6.4L132,66.2C130.9,68.7,128.1,69.8,125.6,68.8z"/>
<path class="st1" d="M123.7,65.2L88.6,50.6c-2.5-1-3.7-3.9-2.7-6.4l14.5-35.1c1-2.5,3.9-3.7,6.4-2.7L142,20.9c2.5,1,3.7,3.9,2.7,6.4
	l-14.5,35.1C129.1,65,126.3,66.2,123.7,65.2z"/>
<path class="st2" d="M42.3,93c3.2-7.5-0.3-16.2-7.8-19.4S18.2,74,15.1,81.5c-2.8,6.8-0.3,14.5,5.8,18.3l3.9-9.4L21.4,89l1.7-3.9
	l3.4,1.4l1.3-3c1.4-3.4,4.3-4.4,7.3-3.1c1.5,0.7,2.9,1.6,2.9,1.6l-1.4,3.3l-1.8-0.8c-1.7-0.8-2.7,0.1-3.1,1.2l-1.1,2.6l3.8,1.6
	l-2.3,3.7L29,92.2l-4,9.5C32,103.4,39.4,99.8,42.3,93"/>
<g>
	
		<linearGradient id="SVGID_1_" gradientUnits="userSpaceOnUse" x1="-488.9559" y1="-31.984" x2="-486.6324" y2="-29.6625" gradientTransform="matrix(9.1176 3.8269 3.8237 -9.1101 4615.6768 1618.5096)">
		<stop  offset="0" style="stop-color:#FFD521"/>
		<stop  offset="5.000000e-02" style="stop-color:#FFD521"/>
		<stop  offset="0.5011" style="stop-color:#F50000"/>
		<stop  offset="0.95" style="stop-color:#B900B4"/>
		<stop  offset="0.9501" style="stop-color:#B900B4"/>
		<stop  offset="1" style="stop-color:#B900B4"/>
	</linearGradient>
	<path class="st3" d="M61.7,29.1c0.3-0.8,0-1.7-0.8-2c-0.8-0.3-1.7,0-2,0.8c-0.3,0.8,0.1,1.7,0.8,2C60.6,30.2,61.4,29.9,61.7,29.1"
		/>
	
		<linearGradient id="SVGID_2_" gradientUnits="userSpaceOnUse" x1="151.3428" y1="199.2729" x2="174.3172" y2="222.2474" gradientTransform="matrix(0.9221 0.387 0.387 -0.9221 -181.4274 163.9095)">
		<stop  offset="0" style="stop-color:#FFD521"/>
		<stop  offset="5.000000e-02" style="stop-color:#FFD521"/>
		<stop  offset="0.5011" style="stop-color:#F50000"/>
		<stop  offset="0.95" style="stop-color:#B900B4"/>
		<stop  offset="0.9501" style="stop-color:#B900B4"/>
		<stop  offset="1" style="stop-color:#B900B4"/>
	</linearGradient>
	<path class="st4" d="M59.1,40.8c-0.5,1.1-1,1.7-1.3,2c-0.4,0.4-0.8,0.8-1.4,1c-0.6,0.3-1.1,0.3-1.7,0.3c-0.5,0-1.2-0.1-2.3-0.5
		c-1.3-0.5-1.6-0.6-4.8-1.9c-3.1-1.3-3.5-1.5-4.7-2c-1.1-0.5-1.7-1-2-1.3c-0.4-0.4-0.8-0.8-1-1.4c-0.3-0.6-0.3-1.1-0.3-1.7
		c0-0.5,0.1-1.2,0.5-2.3c0.4-1.3,0.6-1.7,1.9-4.8s1.5-3.5,2.1-4.7c0.5-1.1,1-1.7,1.3-2c0.4-0.4,0.8-0.8,1.4-1
		c0.6-0.3,1.1-0.3,1.7-0.3c0.5,0,1.2,0.1,2.3,0.5c1.3,0.5,1.6,0.6,4.8,1.9c3.1,1.3,3.5,1.5,4.7,2c1.1,0.5,1.7,1,2,1.3
		c0.4,0.4,0.8,0.8,1,1.4c0.3,0.6,0.3,1.1,0.3,1.7c0,0.5-0.1,1.2-0.5,2.3c-0.4,1.3-0.6,1.6-1.9,4.8C59.7,39.2,59.6,39.6,59.1,40.8
		L59.1,40.8z M65.2,32.2c0.5-1.3,0.6-2.2,0.7-3.1c0-0.9-0.1-1.7-0.5-2.7c-0.3-0.9-0.8-1.6-1.5-2.2c-0.6-0.6-1.4-1.2-2.6-1.8
		c-1.3-0.6-1.6-0.8-4.8-2.1c-3.2-1.3-3.6-1.5-4.8-1.9c-1.3-0.5-2.2-0.6-3.1-0.7c-0.9,0-1.7,0.1-2.6,0.5c-0.9,0.4-1.6,0.8-2.3,1.5
		c-0.6,0.6-1.2,1.4-1.8,2.6c-0.6,1.3-0.8,1.6-2.1,4.8s-1.5,3.6-1.9,4.8c-0.5,1.3-0.6,2.2-0.7,3.1c0,0.9,0.1,1.7,0.5,2.6
		c0.3,0.9,0.8,1.6,1.5,2.2c0.6,0.6,1.4,1.2,2.6,1.8c1.3,0.6,1.6,0.8,4.8,2.1s3.6,1.5,4.8,1.9c1.3,0.5,2.2,0.6,3.1,0.7
		c0.9,0,1.7-0.1,2.6-0.5c0.9-0.3,1.6-0.8,2.2-1.5c0.6-0.6,1.2-1.4,1.8-2.6c0.6-1.3,0.8-1.6,2.1-4.8C64.5,33.9,64.7,33.4,65.2,32.2
		L65.2,32.2z"/>
	
		<linearGradient id="SVGID_3_" gradientUnits="userSpaceOnUse" x1="151.3743" y1="199.2467" x2="174.3405" y2="222.2186" gradientTransform="matrix(0.9221 0.387 0.387 -0.9221 -181.4274 163.9095)">
		<stop  offset="0" style="stop-color:#FFD521"/>
		<stop  offset="5.000000e-02" style="stop-color:#FFD521"/>
		<stop  offset="0.5011" style="stop-color:#F50000"/>
		<stop  offset="0.95" style="stop-color:#B900B4"/>
		<stop  offset="0.9501" style="stop-color:#B900B4"/>
		<stop  offset="1" style="stop-color:#B900B4"/>
	</linearGradient>
	<path class="st5" d="M49.9,36c-2.2-0.9-3.2-3.3-2.3-5.5c0.9-2.2,3.3-3.2,5.5-2.3c2.2,0.9,3.2,3.3,2.3,5.5
		C54.5,35.9,52,36.9,49.9,36z M54.1,26.1c-3.3-1.4-7.1,0.2-8.5,3.5s0.2,7.1,3.5,8.5c3.3,1.4,7.1-0.2,8.5-3.5
		C58.9,31.4,57.3,27.5,54.1,26.1z"/>
</g>
<g>
	<path class="st6" d="M84.7,91.8l-2.3,3.1l-3.4-1.3c-0.3-2.3,0-4.6,0.9-6.9c0.9-2.2,2.2-4.1,3.9-5.5l0,0l2.8,1.7l0.1,3.5
		c-0.6,0.7-1.1,1.5-1.4,2.4C85,89.8,84.8,90.9,84.7,91.8z"/>
	<path class="st7" d="M107.3,94.7c-0.2,0.9-0.4,1.7-0.7,2.6c-0.4,1-0.8,1.8-1.4,2.7c-1.8,2.8-4.6,4.8-7.7,5.7l0,0l-3.7-1.7l0.8-3.6
		c1.9-0.3,3.7-1.2,5-2.7l-7.1-2.8l2.1-5.3l7.2,2.8L107.3,94.7L107.3,94.7z"/>
	<path class="st8" d="M97.5,105.6L97.5,105.6c-3,0.9-6.3,0.9-9.5-0.4c-5.1-2-8.3-6.6-8.9-11.6l5.7-1.8c-0.1,3.4,2,6.7,5.4,8
		c1.5,0.6,3,0.7,4.4,0.5L97.5,105.6z"/>
	<path class="st9" d="M105.7,85.1l-5.7,1.8c-0.9-1.2-2.2-2.2-3.7-2.8c-3.5-1.4-7.3-0.3-9.6,2.4l-2.9-5.2l0,0
		c3.9-3.4,9.5-4.5,14.6-2.5C101.7,80,104.2,82.3,105.7,85.1z"/>
</g>
<path class="st10" d="M127.2,29.8l-16-6.4c-3.1-1.3-6.7,0.3-8,3.4l-3.2,8c-1.3,3.1,0.3,6.7,3.4,8l16,6.4c3.1,1.3,6.7-0.3,8-3.4
	l3.2-8C131.9,34.6,130.4,31.1,127.2,29.8z M119.3,38.4l-8.9,0.6c-0.2,0-0.4-0.2-0.3-0.4l2.9-7.4c0.1-0.2,0.4-0.3,0.5-0.1l6,6.8
	C119.7,38,119.6,38.4,119.3,38.4z"/>
</svg>
