<?xml version="1.0" encoding="utf-8"?>
<!-- Generator: Adobe Illustrator 24.1.0, SVG Export Plug-In . SVG Version: 6.00 Build 0)  -->
<svg version="1.1" id="Layer_1" xmlns="http://www.w3.org/2000/svg" xmlns:xlink="http://www.w3.org/1999/xlink" x="0px" y="0px"
	 viewBox="0 0 1200 1200" style="enable-background:new 0 0 1200 1200;" xml:space="preserve">
<style type="text/css">
	.st0{fill:#F9F9F9;}
	.st1{display:none;}
	.st2{display:inline;fill:#6A79A8;}
	.st3{fill:#EEEEEE;}
	.st4{fill:#FFFFFF;}
	.st5{fill:#5D7183;}
	.st6{fill:#FFAC98;}
	.st7{fill:#FFEEA4;}
	.st8{fill:#96E296;}
	.st9{fill:#377DFF;}
	.st10{fill:#BED5FC;}
	.st11{display:inline;}
	.st12{fill:#E5E5E5;}
	.st13{fill:#6A79A8;}
	.st14{fill:#F0F9FC;}
	.st15{fill:#BBDFF5;}
	.st16{fill:#DEF3F9;}
	.st17{fill:#BBF9BC;}
	.st18{fill:#D1D1D1;}
</style>
<g id="_x2018_ëîé_x5F_1_x5F_1_x5F_">
	<path id="XMLID_1_" class="st0" d="M350.3,983.8c-21.4-4.3-278.8-43.4-259.9-331.7s42.7-374.9,142.8-406.6s343.3-181.8,534.2-39.1
		s396.9,270.7,315.1,498.5c-81.7,227.8-95.1,303.8-308.4,292.2C560.9,985.4,452.2,1004.4,350.3,983.8z"/>
	<g id="XMLID_10_">
	</g>
	<g id="XMLID_3_" class="st1">
		<path id="XMLID_4_" class="st2" d="M432.5,377.9c-0.2,3.5-1.9,7.1-2.8,10.4c-1.2,4.8-2.3,9.7-3.1,14.6c-1.1,6.6-1.9,13.3-2.3,20
			c-0.4,6-1.3,12.9,0.6,18.8c0.6,1.7,1.3,3.8,0.2,5.3c-0.8,1.1-2.3,1.4-3.6,1.4c-2.6,0-5.4-1-6.7-3.2c-1.2-2.1-0.9-4.7-0.5-7.1
			c1.6-9.6,3.1-19.2,4.7-28.8c0.7-4.2,2.7-9.9,2.3-14.1c-0.2-2.2-0.1-1.8-2.4-1.9c-1,0-2.1,0-3.1,0l0.3-3.6
			c0.1-3.1,1.2-6.9,3.2-11.3c2.4-5.3,4.8-7.8,7.3-7.7c1.4,0.1,2.8,1,4.1,2.6C432,375,432.6,376.5,432.5,377.9z"/>
	</g>
	<g id="_x32_">
		<g>
			<g>
				<path class="st3" d="M1058.9,880.4c14.9-2.4,20.4-5.2,13.3-8.6c-50-23.7-274.1-24-382.9-24.5c-136.8-0.6-279.1-1.9-402.2,3.3
					c-51.5,2.2-170.5-0.4-188.3,11.7c-55.1,37.5,320.3,28.1,380.7,28.7C579.9,891.8,973.5,893.9,1058.9,880.4z"/>
				<path id="XMLID_58_" class="st4" d="M170.4,817.4V309.1c0-9.2,7.2-16.7,16-16.7h797.5c8.8,0,16,7.5,16,16.7v508.2L170.4,817.4
					L170.4,817.4z"/>
				<g id="XMLID_55_">
					<path class="st5" d="M1001.8,810.7c0-29.8,0-59.5,0-89.3c0-20.5,0-41,0-61.6c0-31.5,0-63.1,0-94.6c0-43.8,0-87.6,0-131.4
						c0-34.5,0-68.9,0-103.4c0-7,0.1-14,0-21c-0.1-8.5-5.6-16.4-14.4-17.6c-6.4-0.9-13.3-0.2-19.7-0.2c-27.2,0-54.5,0-81.8,0
						c-37.3,0-74.5,0-111.8,0c-14.8,0-29.6,0-44.4,0c-39,0-77.9,0-116.9,0c-42.5,0-85,0-127.4,0c-23.6,0-47.2,0-70.8,0
						c-24.1,0-48.2,0-72.4,0c-33.5,0-67.1,0-100.5,0c-14.5,0-28.8,0-43.3,0c-6.8,0-14.4-0.9-20.5,2.5s-9.3,9.6-9.3,16.5
						c-0.2,17.3,0,34.7,0,52.1c0,36.4,0,72.8,0,109.2c0,44.1,0,88.2,0,132.3c0,40.6,0,81.1,0,121.7c0,25.5,0,50.9,0,76.3
						c0,3.5,0,6.9,0,10.5c0,0.7,3.8,0.2,3.8-1c0-13.9,0-27.8,0-41.7c0-34.3,0-68.4,0-102.7c0-43.4,0-86.9,0-130.2
						c0-41.5,0-83,0-124.5c0-28.4,0-56.9,0-85.2c0-5.8-0.1-11.7,0-17.5c0.1-7.7,4.3-15.9,12.9-16.5c7-0.5,14.2,0,21.2,0
						c26,0,52.1,0,78.1,0c38.8,0,77.5,0,116.3,0c13.3,0,26.7,0,40.1,0c36.7,0,73.4,0,110.1,0c43,0,86.1,0,129.2,0
						c27.4,0,54.8,0,82.2,0c20,0,40.1,0,60.1,0c34.3,0,68.5,0,102.7,0c14.4,0,28.7,0,43,0c6.7,0,16.3-1.5,22.2,2.3
						c5.5,3.6,7.5,9.5,7.5,15.7c0.1,23.2,0,46.4,0,69.6c0,42,0,84,0,125.9c0,39.6,0,79.2,0,118.9c0,16.5,0,33,0,49.4c0,31,0,62,0,93
						c0,14.5,0,29,0,43.5C997.9,812.4,1001.8,811.9,1001.8,810.7L1001.8,810.7z"/>
				</g>
				<path id="XMLID_54_" class="st4" d="M138.9,872.2h896.8c24.5,0,44.5-21.3,44.5-47.5v-2.9c0-1.5-1.2-2.8-2.6-2.8H96.9
					c-1.4,0-2.6,1.3-2.6,2.8v2.8C94.3,850.8,114.4,872.2,138.9,872.2z"/>
				<g id="XMLID_52_">
					<path class="st5" d="M740,817.7c-8.5,0-17.1,0-25.6,0c-1.6,0-4,2.5-1.4,2.5c8.5,0,17.1,0,25.6,0
						C740.2,820.2,742.6,817.7,740,817.7L740,817.7z"/>
				</g>
				<g id="XMLID_51_">
					<path class="st5" d="M825.5,873.4c34.7,0,69.3,0,104,0c35.1,0,70.4,0.2,105.5,0c15.2-0.1,29.2-7.6,38-19.9
						c4.9-6.9,8-15,8.9-23.4c0.5-3.9,2.1-11.7-3.6-12.4c-2.7-0.3-5.6,0-8.3,0c-6.5,0-13,0-19.5,0c-47,0-93.9,0-140.8,0
						c-34.8,0-69.6,0-104.4,0c-0.6,0-1.1,0-1.8,0c-1.6,0-4,2.5-1.4,2.5c28.3,0,56.5,0,84.8,0c47.8,0,95.7,0,143.6,0
						c13.9,0,27.9,0,41.8,0c1.2,0,2.7-0.2,3.9,0c3.1,0.6,2.2,5.6,2.1,8.1c-1.2,17.5-12,34.3-28.8,40.4c-6,2.2-12,2.3-18.1,2.3
						c-6.6,0-13.3,0-19.9,0c-22,0-44.1,0-66.2,0c-38.7,0-77.5,0-116.2,0c-0.7,0-1.4,0-2.1,0C825.3,870.9,822.9,873.4,825.5,873.4
						L825.5,873.4z"/>
				</g>
				<g id="XMLID_49_">
					<path class="st5" d="M701.6,873.4c22.5,0,45.1,0,67.6,0c1.6,0,4-2.5,1.4-2.5c-22.5,0-45.1,0-67.6,0
						C701.4,870.9,699,873.4,701.6,873.4L701.6,873.4z"/>
				</g>
				<g id="XMLID_48_">
					<path class="st5" d="M655.5,817.7c-5.1,0-10.1,0-15.3,0c-13.7,0-27.5,0-41.2,0c-20.4,0-40.7,0-61.1,0c-24.7,0-49.4,0-74.1,0
						c-27.1,0-54.2,0-81.3,0c-27.2,0-54.5,0-81.8,0c-25.2,0-50.3,0-75.5,0c-21.2,0-42.3,0-63.5,0c-14.9,0-29.6,0-44.5,0
						c-6.5,0-13-0.3-19.5,0c-2.7,0.2-5.2,1.2-5.6,4.2c-1.1,7.4,1.2,16.4,4.2,23.1c6.9,16.1,22.4,27.6,40,28.3c5.7,0.2,11.5,0,17.2,0
						c14.5,0,28.9,0,43.4,0c21.1,0,42.2,0,63.3,0c25.6,0,51,0,76.6,0c27.2,0,54.5,0,81.7,0c26.8,0,53.5,0,80.3,0
						c23.7,0,47.4,0,71.1,0c18,0,36.1,0,54.2,0c10.1,0,20.4,0,30.5,0c1.3,0,2.6,0,3.9,0c1.6,0,4-2.5,1.4-2.5c-5.4,0-10.6,0-16,0
						c-14.3,0-28.5,0-42.8,0c-21,0-41.9,0-62.9,0c-25.1,0-50.2,0-75.3,0c-27.1,0-54.1,0-81.3,0c-26.4,0-52.9,0-79.3,0
						c-23.6,0-47.3,0-71,0c-18.3,0-36.6,0-54.9,0c-10.7,0-21.4,0-32,0c-1.7,0-3.4,0-5.1,0c-16.9-0.2-31.9-10.7-38.9-25.9
						c-2-4.3-3.4-8.9-4.1-13.6c-0.3-2.4-0.5-4.8-0.6-7.2c0-0.6-0.3-3.8-0.1-4.1c0.2-0.2,0.9,0.1,1.1,0c2.3-0.5,5.4,0,7.7,0
						c11.7,0,23.2,0,34.9,0c18.7,0,37.4,0,56.1,0c23.6,0,47.2,0,70.8,0c26.3,0,52.6,0,78.9,0c27.2,0,54.4,0,81.5,0
						c25.7,0,51.4,0,77.1,0c22.4,0,44.9,0,67.3,0c16.8,0,33.8,0,50.6,0c9.4,0,18.8,0,28.2,0c1.2,0,2.4,0,3.6,0
						C655.8,820.2,658.2,817.7,655.5,817.7L655.5,817.7z"/>
				</g>
				<g id="XMLID_47_">
					<path class="st5" d="M658.6,834.2c-21.1,0-42.2,0-63.3,0c-31.9,0-63.8,0-95.7,0c-4.6,0-9.1,0-13.7,0c-7.1,0-13.2-2.4-16.6-9.2
						c-0.8-1.5-4.5-0.1-3.5,1.7c5.7,10.9,16.5,10.3,26.8,10.3c13.3,0,26.7,0,40,0c33.9,0,67.7,0,101.6,0c8.1,0,16.1,0,24.2,0
						C660.5,837,661.3,834.2,658.6,834.2L658.6,834.2z"/>
				</g>
				<rect id="XMLID_44_" x="215.2" y="334" class="st4" width="744.2" height="460.4"/>
				<rect id="XMLID_43_" x="215.2" y="334" class="st3" width="744" height="45.4"/>
				<g id="XMLID_16_">
					<g id="XMLID_32_">
						<ellipse class="st6" cx="249.9" cy="356.7" rx="9.9" ry="10.5"/>
						<g>
							<path class="st5" d="M261.8,356.2c-0.8-15.2-23.8-13.4-23.6,1C238.2,372.6,261.1,370.4,261.8,356.2c0.1-0.9-3.8-0.3-3.8,1
								c-0.3,5.6-5.1,11.5-11.2,7.8c-3-1.8-4.8-5.4-4.8-8.9c0-5.4,4.7-10.8,10.4-8.2c3.7,1.7,5.4,5.4,5.6,9.3
								C258,358.2,261.8,357.4,261.8,356.2z"/>
						</g>
					</g>
					<g id="XMLID_26_">
						<ellipse class="st7" cx="279.7" cy="356.7" rx="9.9" ry="10.5"/>
						<g>
							<path class="st5" d="M291.5,356.2c-0.8-15.3-23.6-13.9-23.7,0.9c0,15.4,22.9,14,23.7-0.6c0.1-1.7-3.8-1-3.8,0.5
								c-0.2,4.7-3.4,10.1-8.9,8.9c-4.3-1-6.9-5.4-6.9-9.5c0-5.1,4.1-10.4,9.7-8.5c4.1,1.4,6,5.4,6.2,9.4
								C287.7,358.6,291.6,357.8,291.5,356.2z"/>
						</g>
					</g>
					<g id="XMLID_19_">
						<ellipse class="st8" cx="309.4" cy="356.7" rx="9.9" ry="10.5"/>
						<g>
							<path class="st5" d="M321.3,356.2c-0.8-15.2-23.8-13.4-23.6,1C297.7,372.6,320.5,370.4,321.3,356.2c0.1-0.8-3.8-0.2-3.8,1
								c-0.3,5.6-5.1,11.5-11.2,7.8c-3-1.8-4.8-5.4-4.8-8.9c0-5.4,4.7-10.9,10.4-8.2c3.7,1.7,5.4,5.4,5.6,9.3
								C317.4,358.2,321.3,357.4,321.3,356.2z"/>
						</g>
					</g>
				</g>
				<g>
					<path class="st5" d="M769.7,495.5H756c-0.9,0-1.6-0.7-1.6-1.6s0.7-1.6,1.6-1.6h13.7c0.7,0,1.4-0.1,2.1-0.2
						c0.9-0.2,1.7,0.5,1.8,1.4c0.2,0.9-0.5,1.7-1.4,1.8C771.5,495.4,770.6,495.5,769.7,495.5z M740.2,495.5h-16
						c-0.9,0-1.6-0.7-1.6-1.6s0.7-1.6,1.6-1.6h16c0.9,0,1.6,0.7,1.6,1.6S741.1,495.5,740.2,495.5z M708.2,495.5h-16
						c-0.9,0-1.6-0.7-1.6-1.6s0.7-1.6,1.6-1.6h16c0.9,0,1.6,0.7,1.6,1.6S709.1,495.5,708.2,495.5z M676.3,495.5h-16
						c-0.9,0-1.6-0.7-1.6-1.6s0.7-1.6,1.6-1.6h16c0.9,0,1.6,0.7,1.6,1.6C677.9,494.8,677.2,495.5,676.3,495.5z M644.3,495.5h-16
						c-0.9,0-1.6-0.7-1.6-1.6s0.7-1.6,1.6-1.6h16c0.9,0,1.6,0.7,1.6,1.6C645.9,494.8,645.2,495.5,644.3,495.5z M612.4,495.5h-16
						c-0.9,0-1.6-0.7-1.6-1.6s0.7-1.6,1.6-1.6h16c0.9,0,1.6,0.7,1.6,1.6S613.3,495.5,612.4,495.5z M580.5,495.5h-16
						c-0.9,0-1.6-0.7-1.6-1.6s0.7-1.6,1.6-1.6h16c0.9,0,1.6,0.7,1.6,1.6S581.3,495.5,580.5,495.5z M548.5,495.5h-16
						c-0.9,0-1.6-0.7-1.6-1.6s0.7-1.6,1.6-1.6h16c0.9,0,1.6,0.7,1.6,1.6S549.4,495.5,548.5,495.5z M516.6,495.5h-16
						c-0.9,0-1.6-0.7-1.6-1.6s0.7-1.6,1.6-1.6h16c0.9,0,1.6,0.7,1.6,1.6C518.2,494.8,517.5,495.5,516.6,495.5z M484.6,495.5h-16
						c-0.9,0-1.6-0.7-1.6-1.6s0.7-1.6,1.6-1.6h16c0.9,0,1.6,0.7,1.6,1.6S485.5,495.5,484.6,495.5z M452.7,495.5h-16
						c-0.9,0-1.6-0.7-1.6-1.6s0.7-1.6,1.6-1.6h16c0.9,0,1.6,0.7,1.6,1.6C454.3,494.8,453.6,495.5,452.7,495.5z M420.8,495.5h-16
						c-0.9,0-1.6-0.7-1.6-1.6s0.7-1.6,1.6-1.6h16c0.9,0,1.6,0.7,1.6,1.6S421.6,495.5,420.8,495.5z M391.9,489.1
						c-0.5,0-1-0.2-1.3-0.6c-2.2-3-3.4-6.7-3.4-10.5v-5.7c0-0.9,0.7-1.6,1.6-1.6s1.6,0.7,1.6,1.6v5.7c0,3.1,1,6.1,2.8,8.5
						c0.6,0.7,0.4,1.7-0.3,2.2C392.6,489,392.3,489.1,391.9,489.1z M784.3,486.2c-0.2,0-0.5-0.1-0.6-0.2c-0.8-0.4-1.2-1.3-0.8-2.1
						c0.9-1.8,1.3-3.8,1.3-5.9v-9.2c0-0.9,0.7-1.6,1.6-1.6c0.9,0,1.6,0.7,1.6,1.6v9.2c0,2.6-0.6,5-1.5,7.3
						C785.5,485.8,784.9,486.2,784.3,486.2z M388.8,457.8c-0.9,0-1.6-0.7-1.6-1.6v-16c0-0.9,0.7-1.6,1.6-1.6s1.6,0.7,1.6,1.6v16
						C390.4,457.1,389.7,457.8,388.8,457.8z M785.7,454.4c-0.9,0-1.6-0.7-1.6-1.6v-16c0-0.9,0.7-1.6,1.6-1.6c0.9,0,1.6,0.7,1.6,1.6
						v16C787.3,453.7,786.6,454.4,785.7,454.4z M390,426c-0.2,0-0.4,0-0.6-0.2c-0.8-0.3-1.2-1.3-0.9-2.1c2.3-5.6,7.2-9.5,13.1-10.6
						c0.9-0.2,1.7,0.4,1.8,1.3c0.2,0.9-0.4,1.7-1.3,1.8c-4.8,0.9-8.9,4.2-10.7,8.7C391.2,425.6,390.6,426,390,426z M782.9,423
						c-0.5,0-1-0.2-1.3-0.7c-2.7-3.9-7.1-6.2-11.8-6.2h-0.6c-0.9,0-1.6-0.7-1.6-1.6s0.7-1.6,1.6-1.6h0.6c5.7,0,11.2,2.8,14.5,7.6
						c0.5,0.7,0.3,1.8-0.4,2.2C783.5,422.9,783.2,423,782.9,423z M753.3,416.1h-16c-0.9,0-1.6-0.7-1.6-1.6s0.7-1.6,1.6-1.6h16
						c0.9,0,1.6,0.7,1.6,1.6C754.9,415.4,754.1,416.1,753.3,416.1z M721.3,416.1h-16c-0.9,0-1.6-0.7-1.6-1.6s0.7-1.6,1.6-1.6h16
						c0.9,0,1.6,0.7,1.6,1.6C722.9,415.4,722.2,416.1,721.3,416.1z M689.4,416.1h-16c-0.9,0-1.6-0.7-1.6-1.6s0.7-1.6,1.6-1.6h16
						c0.9,0,1.6,0.7,1.6,1.6S690.3,416.1,689.4,416.1z M657.4,416.1h-16c-0.9,0-1.6-0.7-1.6-1.6s0.7-1.6,1.6-1.6h16
						c0.9,0,1.6,0.7,1.6,1.6S658.3,416.1,657.4,416.1z M625.5,416.1h-16c-0.9,0-1.6-0.7-1.6-1.6s0.7-1.6,1.6-1.6h16
						c0.9,0,1.6,0.7,1.6,1.6S626.4,416.1,625.5,416.1z M593.6,416.1h-16c-0.9,0-1.6-0.7-1.6-1.6s0.7-1.6,1.6-1.6h16
						c0.9,0,1.6,0.7,1.6,1.6C595.2,415.4,594.4,416.1,593.6,416.1z M561.6,416.1h-16c-0.9,0-1.6-0.7-1.6-1.6s0.7-1.6,1.6-1.6h16
						c0.9,0,1.6,0.7,1.6,1.6C563.2,415.4,562.5,416.1,561.6,416.1z M529.7,416.1h-16c-0.9,0-1.6-0.7-1.6-1.6s0.7-1.6,1.6-1.6h16
						c0.9,0,1.6,0.7,1.6,1.6S530.6,416.1,529.7,416.1z M497.7,416.1h-16c-0.9,0-1.6-0.7-1.6-1.6s0.7-1.6,1.6-1.6h16
						c0.9,0,1.6,0.7,1.6,1.6C499.3,415.4,498.6,416.1,497.7,416.1z M465.8,416.1h-16c-0.9,0-1.6-0.7-1.6-1.6s0.7-1.6,1.6-1.6h16
						c0.9,0,1.6,0.7,1.6,1.6S466.7,416.1,465.8,416.1z M433.9,416.1h-16c-0.9,0-1.6-0.7-1.6-1.6s0.7-1.6,1.6-1.6h16
						c0.9,0,1.6,0.7,1.6,1.6C435.4,415.4,434.7,416.1,433.9,416.1z"/>
				</g>
				<g>
					<g>
						<path class="st3" d="M788.7,751h88.2c9.6,0,17.3-7.7,17.3-17.3v-170c0-9.6-7.7-17.3-17.3-17.3h-88.2
							c-9.6,0-17.3,7.7-17.3,17.3v169.9C771.4,743.2,779.1,751,788.7,751z"/>
						<path class="st4" d="M799.3,708.2h67c4.1,0,7.4,3.4,7.4,7.4v1.5c0,4.1-3.4,7.4-7.4,7.4h-67c-4.1,0-7.4-3.4-7.4-7.4v-1.5
							C791.8,711.5,795.2,708.2,799.3,708.2z"/>
						<path class="st4" d="M799,566.5h67.6c4,0,7.2,3.2,7.2,7.2V674c0,4-3.2,7.2-7.2,7.2H799c-4,0-7.2-3.2-7.2-7.2V573.6
							C791.8,569.7,795,566.5,799,566.5z"/>
					</g>
					<g>
						<path class="st3" d="M625,751h88.2c9.6,0,17.3-7.7,17.3-17.3v-170c0-9.6-7.7-17.3-17.3-17.3H625c-9.6,0-17.3,7.7-17.3,17.3
							v169.9C607.7,743.2,615.4,751,625,751z"/>
						<path class="st4" d="M635.6,708.2h67c4.1,0,7.4,3.4,7.4,7.4v1.5c0,4.1-3.4,7.4-7.4,7.4h-67c-4.1,0-7.4-3.4-7.4-7.4v-1.5
							C628.2,711.5,631.5,708.2,635.6,708.2z"/>
						<path class="st4" d="M635.3,566.5h67.6c4,0,7.2,3.2,7.2,7.2V674c0,4-3.2,7.2-7.2,7.2h-67.6c-4,0-7.2-3.2-7.2-7.2V573.6
							C628.2,569.7,631.4,566.5,635.3,566.5z"/>
					</g>
					<g>
						<path class="st3" d="M461.4,751h88.2c9.6,0,17.3-7.7,17.3-17.3v-170c0-9.6-7.7-17.3-17.3-17.3h-88.2
							c-9.6,0-17.3,7.7-17.3,17.3v169.9C444.1,743.2,451.8,751,461.4,751z"/>
						<path class="st4" d="M471.9,708.2h67c4.1,0,7.4,3.4,7.4,7.4v1.5c0,4.1-3.4,7.4-7.4,7.4h-67c-4.1,0-7.4-3.4-7.4-7.4v-1.5
							C464.5,711.5,467.8,708.2,471.9,708.2z"/>
						<path class="st4" d="M471.7,566.5h67.6c4,0,7.2,3.2,7.2,7.2V674c0,4-3.2,7.2-7.2,7.2h-67.6c-4,0-7.2-3.2-7.2-7.2V573.6
							C464.5,569.7,467.7,566.5,471.7,566.5z"/>
					</g>
					<g>
						<path class="st3" d="M297.7,751h88.2c9.6,0,17.3-7.7,17.3-17.3v-170c0-9.6-7.7-17.3-17.3-17.3h-88.2
							c-9.6,0-17.3,7.7-17.3,17.3v169.9C280.4,743.2,288.1,751,297.7,751z"/>
						<path class="st4" d="M308.2,708.2h67c4.1,0,7.4,3.4,7.4,7.4v1.5c0,4.1-3.4,7.4-7.4,7.4h-67c-4.1,0-7.4-3.4-7.4-7.4v-1.5
							C300.8,711.5,304.2,708.2,308.2,708.2z"/>
						<path class="st4" d="M308,566.5h67.6c4,0,7.2,3.2,7.2,7.2V674c0,4-3.2,7.2-7.2,7.2H308c-4,0-7.2-3.2-7.2-7.2V573.6
							C300.8,569.7,304,566.5,308,566.5z"/>
					</g>
				</g>
				<g id="XMLID_9_">
					<path class="st5" d="M651.4,793c-14.5,0-28.9,0-43.4,0c-34.7,0-69.4,0-104.1,0c-42,0-83.9,0-125.9,0c-36.3,0-72.6,0-108.9,0
						c-12,0-24,0-35.9,0c-3.8,0-7.5,0-11.2,0c-1.8,0-4.2-0.4-5.9,0c-0.2,0.1-0.6,0-0.8,0c0.6,0.5,1.2,1,1.8,1.4
						c0-15.3,0-30.6,0-45.8c0-36.7,0-73.4,0-110.1c0-44.4,0-88.8,0-133.2c0-38.3,0-76.5,0-114.8c0-12.6,0-25.2,0-37.9
						c0-3.9,0-7.8,0-11.7c0-1.8,0.5-4.4,0-6.1c-0.1-0.2,0-0.6,0-0.8c-0.7,0.6-1.4,1.1-2.1,1.6c6.6,0,13.3,0,19.9,0
						c18,0,36.1,0,54.1,0c26.7,0,53.4,0,80.1,0c32.6,0,65.2,0,97.7,0c35.7,0,71.4,0,107,0c36,0,72,0,108,0c33.6,0,67.2,0,100.8,0
						c28.3,0,56.8,0,85.1,0c20.4,0,40.6,0,61,0c6.4,0,12.8,0,19.2,0c3.2,0,6.8,0.4,10,0c0.4-0.1,0.8,0,1.2,0c-0.6-0.5-1.2-1-1.8-1.4
						c0,15.3,0,30.6,0,45.8c0,36.7,0,73.4,0,110.1c0,44.4,0,88.8,0,133.2c0,38.3,0,76.5,0,114.8c0,12.6,0,25.2,0,37.9
						c0,3.9,0,7.8,0,11.7c0,1.8-0.5,4.4,0,6.1c0.1,0.2,0,0.6,0,0.8c0.7-0.6,1.4-1.1,2.1-1.6c-17.6,0-35.2,0-52.8,0
						c-27.9,0-55.8,0-83.8,0c-6.5,0-12.9,0-19.3,0c-2.2,0-2.9,3-0.3,3c17.6,0,35.2,0,52.8,0c27.9,0,55.8,0,83.8,0
						c6.5,0,12.9,0,19.3,0c0.8,0,2.1-0.7,2.1-1.6c0-15.3,0-30.6,0-45.8c0-36.7,0-73.4,0-110.1c0-44.4,0-88.8,0-133.2
						c0-38.3,0-76.5,0-114.8c0-12.6,0-25.2,0-37.9c0-5.8,0.6-12.1,0-17.9c0-0.2,0-0.6,0-0.8c0-1-1-1.4-1.8-1.4c-6.6,0-13.3,0-19.9,0
						c-18,0-36.1,0-54.1,0c-26.7,0-53.4,0-80.1,0c-32.6,0-65.2,0-97.7,0c-35.7,0-71.4,0-107,0c-36,0-72,0-108,0
						c-33.6,0-67.2,0-100.8,0c-28.3,0-56.8,0-85.1,0c-20.4,0-40.6,0-61,0c-9.7,0-19.4-0.2-29.1,0c-0.4,0-0.8,0-1.2,0
						c-0.8,0-2.1,0.7-2.1,1.6c0,15.3,0,30.6,0,45.8c0,36.7,0,73.4,0,110.1c0,44.4,0,88.8,0,133.2c0,38.3,0,76.5,0,114.8
						c0,12.6,0,25.2,0,37.9c0,5.8-0.6,12.1,0,17.9c0,0.2,0,0.6,0,0.8c0,1,1,1.4,1.8,1.4c14.5,0,28.9,0,43.4,0c34.7,0,69.4,0,104.1,0
						c42,0,83.9,0,125.9,0c36.3,0,72.6,0,108.9,0c12,0,24,0,35.9,0c5.7,0,11.5,0.4,17.1,0c0.2,0,0.5,0,0.8,0
						C653.4,796,654,793,651.4,793L651.4,793z"/>
				</g>
			</g>
			<g>
				<path class="st3" d="M845.5,884.6c-1.3-1.5-13.9-5.3-19.5-5.5c-10-1.8-26.2,0.6-28.5,0.4c-14.9-0.9-33.1,0-48.2-0.1
					c-21.4-0.2-104.6,4.2-122.8,8.9c-14.7,3.7,25.2,12.6,30.2,13c55.1,3.9,113.9,3.4,169.4,0.2c0.2,0,0.5-0.1,0.8-0.2
					C835.5,900.6,848.1,887.9,845.5,884.6z"/>
				<g>
					<path class="st4" d="M675.1,893.2c5.2,2.7,7-4.2,9.5-7.5c3.7-4.9,8.2-14.9,10.6-20.4c15.9-36.9,34.4-71.9,50.3-108.8
						c0.4-0.9,0.8-1.8,0.6-2.8c-0.3-1.9-2.4-2.9-4.2-3.4c-21.9-6.5-45.4-3-68.1-5.6c-2.8-0.3-5.7-0.7-8.5-0.2s-5.4-6.4-6.6-3.8
						C657.2,743.9,667,856,671,879c0.6,3.2,0.7,11.7,3.4,13.7C674.5,892.9,674.9,893,675.1,893.2z"/>
					<g>
						<path class="st5" d="M657.5,759.4c1.2,30.7,4.5,61.3,7.8,91.8c0.7,6.6,1.5,13.3,2.4,20c0.8,5.7,1.2,11.9,2.6,17.5
							c0.7,3.1,2.1,5.8,5.6,6.3c2.6,0.3,5-0.9,6.5-2.8c2.3-2.8,4.2-6.5,6.1-9.6c2.6-4.3,4.8-8.9,6.9-13.6
							c10.6-23.6,21.7-46.8,32.8-70.1c0.9-1.8-3-1.4-3.6-0.2c-9.4,19.8-19.2,39.4-28.1,59.4c-3.8,8.5-7.2,17.3-12.1,25.2
							c-1.5,2.5-3,6-5.1,8.1c-4.5,4.6-5.7-6.5-6-8.9c-1.3-11-3-22-4.2-33.1c-1.8-15.9-3.2-31.8-4.6-47.7
							c-1.3-14.4-2.6-28.8-3.1-43.2C661.4,756.9,657.4,757.7,657.5,759.4L657.5,759.4z"/>
					</g>
					<path class="st4" d="M710.5,765.3c1.2,11.7,11.1,25.1,16,33.4c21.2,35.9,48.5,75.4,86.5,95c8.6,4.5,10-5.4,5.8-12
						c-5.2-8-10.6-15.9-15-24.4c-6.6-12.9-10.6-27.5-11.7-42.2c-1.2-15.4-2.3-58.5-2.9-73.7c-0.2-3.8-43,5.1-58.3,5.2
						c-4.6,0-9.5,0.2-13.3,3C711.6,753.8,709.9,759.3,710.5,765.3z"/>
					<g>
						<path class="st5" d="M710.2,773.2c3.7,10.3,10.1,19.2,15.7,28.6c5.4,9.2,11.1,18.2,17.1,27c12.2,17.8,26,34.8,42.6,48.8
							c7.9,6.6,16.5,12.7,25.6,17.4c5.9,3,12.1,0.7,11.7-6.6c-0.3-4.5-2.9-7.8-5.2-11.4c-3.3-5-6.5-10-9.5-15.2
							c-6.3-11-10.6-23.1-12.9-35.6c-1.7-9.5-2-19.2-2.4-28.8c-0.5-10.7-0.9-21.3-1.3-32c-0.1-2.1-4-1.6-3.9,0.2c0.6,16,1,32,2.2,48
							c1.4,21.3,8.6,40.6,20,58.5c2.6,4.2,6.2,8.3,8.1,12.9c1.3,3,2.2,9.8-3,8.1c-4.3-1.4-8.6-4.7-12.5-7.2c-4.6-3-8.9-6.2-13.1-9.7
							c-15.7-12.9-28.7-28.7-40.4-45.3c-6.3-8.9-12.1-18.1-17.8-27.5c-6.1-10.1-13.3-19.9-17.2-31
							C713.4,770.3,709.6,771.3,710.2,773.2L710.2,773.2z"/>
					</g>
					<path class="st4" d="M654.4,741.3c-2.8-32.2-0.9-60.2,4.7-92c3.1-17.4,9.6-34.7,14.8-51.7c6.4-20.8,6.9-42.6,14.1-63.5
						c2-5.9,4.4-11.8,8.4-16.6c5.9-6.9,14.6-9,23.3-7.3c5.7,1.1,10.3,5.4,13.1,10.5c5.2,9.1,6.9,19.5,8,29.8
						c0.5,5.1,9.1,36.8,11.4,41.2c10.6,19.9,16.8,27.9,23.5,49.4c10.2,33.2,17.1,68.4,16.5,102.9c-0.1,4-20.7,14.2-80.7,9.7
						C684,751.8,654.4,741.3,654.4,741.3z"/>
					<path class="st9" d="M775.7,641.2c-6.6-21.6-13.4-30.8-24-50.6c-15,9.5-29.1,10.9-40.5,10.9c-8.5,0-23.5-5.2-27.1-7
						c-2.9-1.4-5.4-3.4-8-5.3c-0.7,2.9-1.4,5.7-2.3,8.5c-5.2,16.9-11.7,34.3-14.8,51.7c-5.7,31.8-7.5,59.9-4.7,92
						c0,0,29.5,7.9,57,10c60.1,4.5,80.7-3.3,80.7-7.2C792.8,709.7,785.9,674.4,775.7,641.2z"/>
					<path class="st9" d="M757.2,536.4c-1.5,8.9-11.7,15.4-20.4,13c-8.8-2.4-14.2-13.1-11-21.6c-2.6,3.9-7.4,6.1-12.1,5.8
						c-4.7-0.4-9-3.4-11-7.7c-2.1,6.1-8.6,10.5-15.1,10c-6.5-0.6-12.2-5.9-13.3-12.3c-1-6.4,2.7-13.3,8.7-15.9
						c-5.9-0.8-10.5-6.7-10.3-12.7s4.6-11.4,10.2-13.4s12.1-0.9,17.2,2.4c-0.6-6.6,4.7-13.2,11.3-14s13.3,4.4,14.3,10.9
						c4.2-4.7,12-5.8,17.4-2.5s8,10.6,5.7,16.6c6.7-1.2,13.8,3.8,15,10.5c1.1,6.7-3.9,13.8-10.6,14.9
						C757.9,524.8,758.9,530.2,757.2,536.4L757.2,536.4z"/>
					<g>
						<path class="st5" d="M657.8,670c1.8-13.8,4.2-27.5,8.1-41c3.9-13.4,8.9-26.5,12.2-40.2c3.2-13.4,4.7-27.2,7.8-40.6
							c2.7-11.9,6.4-29.5,18.5-35.4c5.7-2.7,13.5-2.9,19,0.5c5.6,3.4,8.8,9.7,10.9,15.6c3.2,8.9,3.4,18.2,5.5,27.3
							c1.8,7.6,3.8,15.1,6,22.6c1.7,5.9,3.4,11.5,6.3,16.8c12.9,23.9,25.1,48.2,29.5,75.2c0.2,1.6,4.2,0.6,3.8-1
							c-4.2-25.4-15.2-48.6-27.3-71.1c-3.6-6.7-6.1-12.9-8.3-20.2c-2.3-8.1-4.6-16.1-6.4-24.3c-2.4-10.7-2.6-21.5-7.5-31.5
							c-5-10.2-13.9-15.7-25.4-14.1c-12.1,1.6-19.1,10.8-23.2,21.6c-5.1,13.4-7.3,27.6-9.8,41.7c-2.9,16.5-7.7,31.9-12.8,47.8
							c-5.3,16.6-8.7,33.3-10.9,50.5C653.8,672.1,657.7,671.6,657.8,670L657.8,670z"/>
					</g>
					<g>
						<path class="st5" d="M679.6,593.4c20.9,12.1,47.1,12,68.4,0.7c2.3-1.2-1.1-1.7-2.4-1c-19.6,10.5-43.8,9.6-62.9-1.5
							C681.6,590.9,678,592.5,679.6,593.4L679.6,593.4z"/>
					</g>
					<g>
						<g>
							<path class="st10" d="M677.2,609.1c1.3,2.3,3.4,6,6.1,6.9c2.6,1,6.3-1.8,8.5-2.8c2.4-1.1,0.2-3.2-1.7-2.3
								c-1,0.5-2.1,1-3.1,1.4c-0.5,0.2-1,0.5-1.6,0.7c-0.2,0.1-0.6,0.2-0.8,0.3c0.6-0.2,0.6-0.4,0.1-0.7c-0.5-0.9-1.5-1.7-2.2-2.5
								c-0.7-1-1.3-1.9-1.8-3C679.9,605.9,676.2,607.3,677.2,609.1L677.2,609.1z"/>
						</g>
						<g>
							<path class="st10" d="M675.2,620.2c1.4,1.4,2.8,3,4.3,4.4c0.9,0.8,1.3,1,2.5,0.8c3-0.4,6.1-2.4,8.8-3.8
								c0.8-0.4,0.3-0.6-0.2-0.8c-0.7-0.2-2.1,0.4-2.7,0.7c-1.4,0.8-3.4,2.2-5.1,2.6c0.5,0,1,0,1.4,0c-2-1-3.8-3.6-5.4-5.2
								C678.1,618.2,674.6,619.7,675.2,620.2L675.2,620.2z"/>
						</g>
						<g>
							<path class="st10" d="M672.6,630.9c1.8,1.1,3.5,2.2,5.3,3.3c1,0.6,2,1.3,3.3,1.2c2.7-0.1,5.3-2.6,7.3-4
								c2.2-1.4-1.1-2.2-2.4-1.3c-1,0.6-2,1.3-3,2c-0.2,0.2-0.5,0.3-0.7,0.5c-0.8,0.6-1,0.7-0.6,0.2c-0.7-0.2-2-1.3-2.6-1.6
								c-1.2-0.7-2.3-1.4-3.5-2.2C674.5,628.3,670.9,629.9,672.6,630.9L672.6,630.9z"/>
						</g>
						<g>
							<path class="st10" d="M669.6,642.1c1.7,1.4,3.3,2.7,5,4.2c1,0.8,1.9,1.8,3.3,1.9c1.3,0.1,2.6-0.8,3.7-1.4c2-1.2,4-2.5,6-3.8
								c2.2-1.4-1.3-1.5-2.3-0.8c-2.2,1.4-4.8,3.6-7.3,4.4c0.9,0,1.7-0.1,2.6-0.1c-2.6-1.4-4.9-3.9-7.2-5.8
								C672.3,640,668.7,641.4,669.6,642.1L669.6,642.1z"/>
						</g>
						<g>
							<path class="st10" d="M667.5,652.8c2.6,1.4,5,2.9,7.6,4.3c1.3,0.7,1.9,1.1,3.3,1c3.9-0.5,8.1-4.5,11.4-6.5c1.6-1-2.2-0.5-3,0
								c-2.9,1.8-6,4.5-9.2,5.7c1-0.2,1.9-0.3,3-0.4c-3.3-1.1-6.5-3.5-9.5-5.2C670.2,651,667.1,652.6,667.5,652.8L667.5,652.8z"/>
						</g>
						<g>
							<path class="st10" d="M669,663.9c1.5,1.2,3.1,2.5,4.6,3.7c1,0.8,2.1,1.9,3.4,1.9c1.2,0,2.1-0.8,3-1.4c1.4-1,2.9-2.2,4.3-3.2
								c2.1-1.6-1-3.1-2.6-1.9c-1,0.7-1.9,1.4-2.9,2.2c-0.5,0.3-1,0.7-1.4,1c-0.8,0.7-1,0.7-0.4,0.2c0.5-0.4,0.3-0.8-0.5-1
								c-0.5-0.4-1-0.8-1.5-1.2c-1-0.8-2.1-1.7-3.1-2.5C670.5,660.5,667.3,662.6,669,663.9L669,663.9z"/>
						</g>
						<g>
							<path class="st10" d="M668,676.7c2.6,1.2,5.7,3.4,8.6,3c3.1-0.5,6.5-2.6,9.3-3.8c2.4-1,0.2-3.1-1.7-2.2c-2.2,1-4.6,2.5-6.9,3
								c-2.2,0.5-5.1-1.6-7.2-2.5C668.6,673.4,665.7,675.7,668,676.7L668,676.7z"/>
						</g>
						<g>
							<path class="st10" d="M666.3,686.9c2.6,1.8,5.9,5.3,9.3,4.4c3.4-1,6.8-3.5,9.6-5.7c2.1-1.5-1.2-2.1-2.4-1.2
								c-2.4,1.8-5.3,4.2-8.2,5c0.6,0,1.2,0,1.8,0.1c-2.5-1.1-4.7-3-6.9-4.5C668.3,684.3,664.8,685.9,666.3,686.9L666.3,686.9z"/>
						</g>
						<g>
							<path class="st10" d="M665.6,698.7c3.4,2.3,6.5,6.1,10.8,4.6c3.5-1.3,7.2-3.9,9.6-6.8c0.2-0.2-3.1-0.2-3.8,0.7
								c-1.4,1.8-4.6,4.9-6.9,5.2c0.5,0,1,0,1.4,0c-2.6-1.2-5.1-3.3-7.5-5C668.4,696.9,665.1,698.4,665.6,698.7L665.6,698.7z"/>
						</g>
						<g>
							<path class="st10" d="M663.8,708.3c2.1,1.4,4.2,2.6,6.4,3.9c1.5,0.9,3,2.2,5,2.2c3.8-0.1,5.4-4.4,7.2-7.1
								c0.9-1.3-3-0.8-3.5,0.1c-1.1,1.6-2.5,4.8-4.2,5.9c0.9-0.2,1.8-0.5,2.7-0.7c-1.7-0.1-3.9-2-5.4-2.9c-1.5-1-3-1.8-4.6-2.8
								C666.4,706.2,663,707.8,663.8,708.3L663.8,708.3z"/>
						</g>
						<g>
							<path class="st10" d="M667.4,718.9c2.3,1.4,5.6,4.6,8.5,4.5c3-0.1,6-3,8.4-4.4c2.2-1.4-1-2.6-2.6-1.7c-1.5,1-3.9,3.3-5.8,3
								c-0.9-0.2-2.1-1.3-2.8-1.8c-1-0.6-1.8-1.2-2.8-1.8C669,715.8,665.6,717.7,667.4,718.9L667.4,718.9z"/>
						</g>
						<g>
							<path class="st10" d="M664.3,729c1.9,0.9,3.9,1.8,5.8,2.6c1.4,0.6,3.1,1.8,4.8,1.9c2.7,0,5.9-3.3,8.1-4.7
								c2.2-1.4-1-3-2.6-1.9c-1.9,1.3-3.8,3-5.9,3.9c0.6-0.1,1.3-0.1,2-0.2c-3.4-1-6.7-3-9.9-4.4C664.8,725.5,662.1,728,664.3,729
								L664.3,729z"/>
						</g>
						<g>
							<path class="st10" d="M666.4,737.4c2.6,1.2,6.3,3.7,9.3,3.3c3.3-0.4,5.5-3.8,7.7-5.9c0.7-0.8-2.9-0.3-3.5,0.3
								c-1.2,1.3-3,3.9-4.6,4.7c0.8-0.2,1.6-0.4,2.4-0.6c-2.4-0.1-5.4-2.2-7.6-3.1c-0.7-0.3-1.8,0-2.5,0.2
								C667.3,736.4,665.7,737.1,666.4,737.4L666.4,737.4z"/>
						</g>
					</g>
					<g>
						<g>
							<path class="st10" d="M707.4,613c1.9,2.1,4.7,5,7.7,5.5c3,0.6,6-3,8-4.6c2.1-1.6-1-3-2.6-1.8c-1,0.8-2.1,1.7-3.1,2.5
								c-0.2,0.2-0.6,0.4-0.8,0.6c-0.7,0.9-1,0.9-0.6,0.2c-1.9-0.8-3.7-2.6-5-4.1C709.7,610.1,706.1,611.6,707.4,613L707.4,613z"/>
						</g>
						<g>
							<path class="st10" d="M706.7,623.3c2,1.7,4.6,5.3,7.4,4.6c3-0.6,5.7-2.7,8.2-4.4c1.5-1-2.2-0.5-3-0.1c-1.5,1-3.5,2.7-5.3,3.3
								c0.6,0,1.3-0.1,2-0.1c-2.1-1.2-3.9-3.1-5.7-4.7C709.6,621.4,706.2,622.8,706.7,623.3L706.7,623.3z"/>
						</g>
						<g>
							<path class="st10" d="M705,634.2c1.8,1,3.7,1.9,5.6,2.8c1.1,0.6,2.2,1.2,3.6,1c2.7-0.3,5.2-3.1,7.2-4.7
								c0.7-0.6,0.2-1.2-0.4-1.5c-0.9-0.4-2.1,0.2-2.7,0.7c-0.7,0.6-1.4,1.1-2.1,1.7c-0.9,0.7-1.1,1.1-2,1s-2-1-2.8-1.4
								c-1.1-0.6-2.2-1.1-3.3-1.7C706.9,631.7,703.4,633.4,705,634.2L705,634.2z"/>
						</g>
						<g>
							<path class="st10" d="M703,645.6c1.8,1.2,3.5,2.5,5.3,3.7c1.1,0.8,2.2,1.8,3.6,1.7c1.2-0.1,2.3-0.7,3.3-1.4
								c2.1-1.4,4.1-3,6.1-4.6c1.7-1.2-2.2-1-3-0.4c-2,1.4-4.3,3.8-6.5,4.8c0.7-0.1,1.5-0.2,2.2-0.2c-2.6-1.2-5-3.4-7.4-5.1
								C705.6,643.5,702.2,645,703,645.6L703,645.6z"/>
						</g>
						<g>
							<path class="st10" d="M701.8,656.4c2.9,1.3,5.7,2.8,8.6,3.9c1.2,0.5,2,0.7,3.3,0.4c3.8-1,7.5-5.1,10.6-7.4
								c0.7-0.6-2.7-0.2-3.5,0.3c-2.6,2-5.4,4.8-8.4,6.3c0.9-0.2,1.8-0.3,2.7-0.5c-3.3-0.8-6.6-3-9.7-4.3
								C704.5,654.7,701.5,656.2,701.8,656.4L701.8,656.4z"/>
						</g>
						<g>
							<path class="st10" d="M704.2,665.3c1.7,1.1,3.3,2.2,5,3.3c1,0.7,2.2,1.8,3.6,1.7c2.6-0.1,5.2-3.6,6.9-5.1
								c1.9-1.8-1-3.3-2.6-1.9c-0.9,0.8-1.8,1.6-2.7,2.4c-0.5,0.4-0.9,0.8-1.4,1.2c-0.7,0.7-0.9,0.8-0.4,0.3
								c0.5-0.4,0.3-0.6-0.6-0.9c-0.6-0.4-1.1-0.7-1.7-1.1c-1.1-0.7-2.2-1.4-3.3-2.2C705.7,662,702.3,664.1,704.2,665.3L704.2,665.3
								z"/>
						</g>
						<g>
							<path class="st10" d="M704.2,680.3c2.6,1,5.9,3,8.9,2.4s6.3-3.1,9-4.6c2.3-1.3,0.2-3.3-1.7-2.2c-2.1,1.1-4.3,2.8-6.5,3.5
								c-2.2,0.8-5.2-1-7.3-1.8C704.9,677.1,701.9,679.4,704.2,680.3L704.2,680.3z"/>
						</g>
						<g>
							<path class="st10" d="M703.5,690.5c2.7,1.5,6.4,4.7,9.6,3.7c3.4-1,6.8-4.3,9.4-6.6c1.7-1.4-2.2-1.5-3.1-0.6
								c-2.3,2.1-5,4.6-7.8,5.7c0.8-0.1,1.5-0.1,2.3-0.2c-2.6-0.9-5-2.6-7.3-3.8C705.4,688,701.9,689.6,703.5,690.5L703.5,690.5z"/>
						</g>
						<g>
							<path class="st10" d="M703.8,702.3c3.3,1.8,7,5.4,10.9,3.9c3.5-1.4,7.1-4.5,9.2-7.6c0.2-0.3-3.2-0.2-3.8,0.7
								c-1,1.4-2.2,2.7-3.6,3.8c-0.7,0.6-1.4,1-2.2,1.5c-0.2,0.2-1.7,0.9-1,0.7c0.6,0,1.3-0.1,2-0.1c-2.8-1-5.4-2.9-7.9-4.3
								C706.5,700.6,703.4,702.1,703.8,702.3L703.8,702.3z"/>
						</g>
						<g>
							<path class="st10" d="M703,712.1c2.2,1.1,4.5,2.3,6.7,3.4c1.7,0.8,3.4,1.9,5.3,1.7c3.6-0.5,4.8-5,6.4-7.7
								c0.4-0.8-3.2-0.5-3.8,0.6c-1,1.7-2,4.8-3.5,6c0.8-0.2,1.5-0.5,2.3-0.7c-1.4,0.1-3.7-1.6-5-2.2c-1.8-0.9-3.5-1.8-5.3-2.6
								C705.3,710,701.7,711.4,703,712.1L703,712.1z"/>
						</g>
						<g>
							<path class="st10" d="M707.3,722.3c2.6,1.3,6.1,4.2,9.2,3.8c2.9-0.3,5.6-3.4,7.7-5c2.1-1.6-1-2.8-2.6-1.7
								c-0.8,0.6-1.6,1.2-2.4,1.8c-0.5,0.3-1.8,1.8-2.4,1.8c-1.6,0.3-5.1-2.3-6.5-3C708.9,719.3,705.4,721.3,707.3,722.3
								L707.3,722.3z"/>
						</g>
						<g>
							<path class="st10" d="M705,732.7c2,0.7,4,1.4,6,2.2c1.5,0.6,3.3,1.5,4.9,1.5c2.7,0,5.7-3.6,7.7-5.3s-1-3.2-2.6-1.9
								c-1.7,1.4-3.8,4-6,3.5c-2.6-0.5-5.4-1.9-7.8-2.8C705.4,729.3,702.7,731.9,705,732.7L705,732.7z"/>
						</g>
						<g>
							<path class="st10" d="M707.8,740.8c2.9,1,6.7,3.1,9.8,2.6c3.3-0.6,5.1-4.2,7.1-6.5c0.4-0.5-1.4-0.3-1.5-0.3
								c-0.8,0.2-1.8,0.4-2.2,1c-1.2,1.5-2.7,4.2-4.4,5.1c0.9-0.2,1.8-0.5,2.7-0.7c-2.4,0.1-5.6-1.6-7.8-2.4c-0.8-0.2-1.8,0-2.5,0.2
								C708.9,739.8,707.2,740.6,707.8,740.8L707.8,740.8z"/>
						</g>
					</g>
					<g>
						<g>
							<path class="st10" d="M743,612.2c2.1,1.8,5.4,4.5,8.3,4.6c3,0.2,5.5-3.8,7.4-5.5c0.7-0.6,0.2-1.5-0.5-1.8
								c-0.9-0.4-2.1,0.1-2.7,0.7c-0.9,0.9-2.2,1.8-2.9,2.8c-0.6,0.9-0.4,1-1.4,0.6c-1.9-0.6-3.8-2.2-5.3-3.6
								C744.6,608.7,741.3,610.7,743,612.2L743,612.2z"/>
						</g>
						<g>
							<path class="st10" d="M743,622.1c2.2,1.6,5.2,4.9,8.1,4.1c2.9-0.8,5.5-3.3,7.8-5.1c0.7-0.6-0.6-0.6-0.9-0.6
								c-0.8,0-1.9,0.4-2.6,0.9c-1.7,1.4-3.6,3.2-5.6,4c1-0.2,1.9-0.3,3-0.4c-2.2-1-4.2-2.7-6.1-4.2
								C745.8,620.2,742.5,621.8,743,622.1L743,622.1z"/>
						</g>
						<g>
							<path class="st10" d="M742.3,633.2c1.9,0.7,3.8,1.5,5.8,2.2c1.2,0.5,2.4,1,3.7,0.8c2.7-0.4,4.9-3.4,6.8-5.2
								c1.7-1.6-2.2-1.7-3.1-0.7c-0.6,0.6-1.3,1.2-1.9,1.8c-0.4,0.4-0.9,0.8-1.3,1.2c-0.3,0.7-0.6,0.9-0.8,0.3
								c-0.6-0.1-1.9-1-2.6-1.2c-1.1-0.5-2.2-0.9-3.4-1.4c-0.9-0.3-2-0.2-2.7,0.3C742.2,631.9,741.4,632.9,742.3,633.2L742.3,633.2z
								"/>
						</g>
						<g>
							<path class="st10" d="M741.4,644.7c1.8,1,3.8,2.2,5.6,3.2c1.2,0.7,2.3,1.6,3.8,1.5c1.3-0.1,2.2-0.8,3.2-1.5
								c2-1.6,3.8-3.4,5.7-5.1c1.5-1.4-2.2-1.1-3-0.4c-2,1.8-4.2,4.4-6.5,5.7c0.9-0.2,1.8-0.3,2.7-0.4c-2.7-1-5.4-2.9-7.8-4.3
								C743.9,642.7,740.6,644.3,741.4,644.7L741.4,644.7z"/>
						</g>
						<g>
							<path class="st10" d="M741.3,655.5c3,1,5.9,2.2,8.9,3.1c1.2,0.3,2.1,0.6,3.3,0.2c1.3-0.3,2.2-1.1,3.1-2
								c2.3-2.1,4.6-4.2,6.8-6.3c0.7-0.7-2.8-0.2-3.5,0.3c-2.6,2.3-5.1,5.5-8.1,7.3c1-0.2,2.1-0.5,3-0.7c-3.4-0.6-6.9-2.2-10-3.4
								C743.8,653.9,741.1,655.5,741.3,655.5L741.3,655.5z"/>
						</g>
						<g>
							<path class="st10" d="M745.2,668.7c2.2,0.7,4.4,1.5,6.5,2.2c1.4,0.5,3.3,1.4,4.8,1.4c3.2-0.2,6.5-4.2,8.9-6.1
								c2.1-1.6-1-3.2-2.6-1.9c-1.4,1.1-2.8,2.2-4.2,3.3c-0.3,0.2-0.7,0.6-1,0.8c-0.6,1-1.2,1.1-1.8,0.4c-2.7-0.3-5.7-2-8.3-2.9
								C745.7,665.4,742.9,667.9,745.2,668.7L745.2,668.7z"/>
						</g>
						<g>
							<path class="st10" d="M746.2,689.4c2.8,1.2,6.9,4.1,10,3c3.4-1.2,6.5-4.9,8.8-7.4c1.5-1.7-2.2-1.6-3.1-0.6
								c-2.1,2.2-4.5,5.1-7.3,6.5c0.6-0.1,1.3-0.2,1.9-0.2c-2.5-0.6-5-2-7.3-3C748.1,687,744.6,688.7,746.2,689.4L746.2,689.4z"/>
						</g>
						<g>
							<path class="st10" d="M747.6,701.1c3.4,1.5,7.5,4.7,11.3,3.1c3.4-1.4,6.8-5,8.5-8.3c0.2-0.4-3.3-0.2-3.8,0.7
								c-0.9,1.5-1.9,2.9-3.2,4.2c-0.9,0.8-2.3,2.5-3.4,2.9c0.7-0.1,1.5-0.2,2.2-0.3c-2.7-0.7-5.5-2.3-8.1-3.4
								C750.2,699.4,747.3,701,747.6,701.1L747.6,701.1z"/>
						</g>
						<g>
							<path class="st10" d="M747.8,710.9c2.3,1,4.6,1.8,6.9,2.7c1.8,0.6,3.4,1.6,5.4,1.3c3.8-0.6,4.5-5,5.8-8.1
								c0.4-0.9-3.4-0.6-3.8,0.6c-0.8,1.8-1.7,5.1-3.1,6.5c0.7-0.3,1.4-0.6,2.1-1c-1.1,0.2-3.6-1.4-4.6-1.8
								c-1.8-0.7-3.7-1.4-5.4-2.2C749.9,708.9,746.4,710.4,747.8,710.9L747.8,710.9z"/>
						</g>
						<g>
							<path class="st10" d="M753.3,720.8c2.7,1.1,6.5,3.6,9.6,2.8c2.7-0.7,5.1-3.9,7.1-5.7c0.7-0.6,0.2-1.5-0.5-1.8
								c-0.9-0.4-2.1,0.1-2.7,0.7c-1.3,1.2-3.3,3.9-5.1,4c-0.9,0-2.3-1-3.1-1.2c-1-0.4-2.1-0.8-3.1-1.2
								C754,717.7,751,719.9,753.3,720.8L753.3,720.8z"/>
						</g>
						<g>
							<path class="st10" d="M752.1,731.4c2.1,0.6,4.2,1,6.2,1.6c1.5,0.4,3.4,1.3,5.1,1c2.6-0.5,5.2-4.2,7-6.1
								c1.8-1.7-1.9-2.6-3.3-1.3c-1.7,1.6-3.3,3.7-5.2,5c0.6-0.2,1.3-0.3,1.9-0.6c-3.5-0.3-7.1-1.7-10.5-2.6
								C751.4,727.9,749.6,730.8,752.1,731.4L752.1,731.4z"/>
						</g>
						<g>
							<path class="st10" d="M755.5,739.1c3,0.7,6.9,2.3,10.1,1.6c3.2-0.8,4.6-4.4,6.3-6.9c0.2-0.3-3.2-0.2-3.8,0.7
								c-1.1,1.7-2.5,4.6-4.2,5.7c0.9-0.3,1.8-0.6,2.6-0.9c-1.1,0.2-2.6-0.5-3.7-0.7c-1.4-0.3-2.8-0.6-4.2-1c-0.8-0.2-2,0.1-2.7,0.5
								C755.7,738.3,754.6,738.9,755.5,739.1L755.5,739.1z"/>
						</g>
					</g>
					<path class="st5" d="M702.8,569.9c0.3,2,0.8,4.2,2.3,5.5c0.5,0.4,1,0.8,1.7,0.8c0.6,0,1-0.2,1.5-0.5c1.2-0.7,2-1.9,2.4-3.2
						c0.5-1.3,0.6-2.6,0.7-4.1c0.2-1.4,0.2-2.7,0.6-4.1c-0.1,0.2-1.1,0.3-1.4,0.4c-0.5,0.1-1,0.2-1.4,0.3c-1,0.2-1.9,0.2-2.9,0.2
						s-1.9-0.1-2.9-0.2c-0.3-0.1-0.8-0.2-1,0c-0.2,0.3-0.2,1-0.2,1.3C702.4,567.7,702.6,568.8,702.8,569.9z"/>
				</g>
				<g>
					<g>
						<path class="st4" d="M546.3,745.8l364.5,18c8.8,0.4,16.3-6.4,16.8-15.2l2.3-47.4c0.4-8.8-6.4-16.3-15.2-16.8l-364.5-18
							c-8.8-0.4-16.3,6.4-16.8,15.2l-2.3,47.4C530.6,737.9,537.4,745.4,546.3,745.8z"/>
						<g>
							<path class="st5" d="M545.6,747.3c17.4,0.9,34.8,1.8,52.2,2.6c39.1,1.9,78.2,3.9,117.3,5.8c40.9,2,81.9,4.1,122.7,6.1
								c23.2,1.1,46.6,2.3,69.8,3.4c3.3,0.2,6.5,0.2,9.7-0.9c5.7-2,10.1-6.6,11.6-12.5c0.6-2.6,0.6-5.4,0.7-8.1
								c0.5-9.7,1-19.4,1.4-29.1c0.3-6.8,2.1-15.6-1.1-21.9c-4.8-9.4-14.1-9.4-23-9.9c-10.9-0.6-21.9-1.1-32.8-1.6
								c-37.5-1.8-75-3.8-112.5-5.6c-41.8-2.1-83.4-4.2-125.2-6.2c-26.5-1.3-52.9-2.6-79.5-3.9c-1.9-0.1-3.9-0.2-5.8-0.3
								c-9.1-0.3-17.7,5.3-19.4,14.5c-1.3,6.7-0.9,14-1.2,20.8c-0.5,8.9-0.9,17.9-1.4,26.8C528.7,737.7,534.7,746.4,545.6,747.3
								c1.9,0.2,3.9-2.6,1.4-2.8c-8.2-0.7-14-7.3-13.9-15.5c0-2.2,0.2-4.3,0.3-6.5c0.5-9.7,1-19.2,1.4-28.9
								c0.4-7.6-0.6-17.3,5.9-22.6c3.4-2.7,7.2-3,11.3-2.8c22.2,1.1,44.4,2.2,66.6,3.3c39.6,2,79.2,3.9,118.8,5.9
								c38.6,1.9,77.2,3.8,115.8,5.7c20,1,40.1,1.8,60.1,3c8.5,0.5,14.8,6.9,14.7,15.6c-0.1,6.8-0.6,13.7-1,20.5
								c-0.4,8.5-0.8,17-1.3,25.6c-0.5,8.3-5.7,15.1-14.6,14.9c-18.9-0.4-37.9-1.9-56.9-2.8c-38.3-1.9-76.7-3.8-115.1-5.7
								c-39.8-2-79.5-3.9-119.3-5.9c-23.2-1.1-46.4-2.3-69.6-3.4c-1.1-0.1-2.2-0.1-3.4-0.2C545,744.4,543,747.1,545.6,747.3z"/>
						</g>
					</g>
					<g>
						<path class="st9" d="M659.8,726.4c-0.2,0.6-0.7,1.2-1.4,1.7c-0.6,0.5-1.5,0.7-2.6,0.6c-1.1-0.1-1.9-0.4-2.6-1
							c-0.6-0.6-1-1.2-1.2-1.9s-0.5-1.8-0.8-3.4l-4.5-23.1c-0.2-1.4-0.4-2.4-0.3-3c0.1-0.9,0.4-1.6,1-2.2c0.6-0.6,1.4-0.8,2.3-0.8
							c0.9,0.1,1.6,0.3,2,0.8c0.5,0.5,0.7,1,0.9,1.6s0.3,1.4,0.5,2.5l3.4,20l5.9-18.2c0.5-1.5,0.9-2.6,1.1-3.2
							c0.2-0.6,0.7-1.3,1.4-1.8c0.6-0.6,1.6-0.8,2.7-0.7s2,0.4,2.6,1s1.1,1.2,1.4,2c0.2,0.7,0.6,1.8,0.8,3.3l4.1,18.8l5.4-19.6
							c0.4-1.5,0.8-2.6,1.3-3.4c0.5-0.8,1.4-1.1,2.6-1c0.9,0.1,1.7,0.4,2.2,1c0.6,0.6,0.9,1.4,0.8,2.2c0,0.7-0.2,1.7-0.6,3
							l-6.8,22.5c-0.2,0.6-0.4,1.4-0.7,2.2c-0.2,0.8-0.6,1.4-1,2s-0.8,1-1.4,1.3c-0.6,0.3-1.3,0.4-2.1,0.4c-1-0.1-1.8-0.3-2.5-1
							c-0.6-0.6-1-1.2-1.3-1.8c-0.2-0.7-0.5-1.8-0.9-3.4l-4.6-20.5l-6.5,20C660.5,724.7,660.1,725.8,659.8,726.4z"/>
						<path class="st9" d="M615.4,724.2c-0.2,0.6-0.7,1.2-1.4,1.7c-0.6,0.5-1.5,0.7-2.6,0.6c-1.1-0.1-1.9-0.4-2.6-1
							c-0.6-0.6-1-1.2-1.2-1.9s-0.5-1.8-0.8-3.4l-4.5-23.1c-0.2-1.4-0.4-2.4-0.3-3c0.1-0.9,0.4-1.6,1-2.2c0.6-0.6,1.4-0.8,2.3-0.8
							c0.9,0.1,1.6,0.3,2,0.8c0.5,0.5,0.7,1,0.9,1.6s0.3,1.4,0.5,2.5l3.4,20l5.9-18.2c0.5-1.5,0.9-2.6,1.1-3.2
							c0.2-0.6,0.7-1.3,1.4-1.8c0.6-0.6,1.6-0.8,2.7-0.7c1.1,0.1,2,0.4,2.6,1s1.1,1.2,1.4,2c0.2,0.7,0.6,1.8,0.8,3.3l4.1,18.8
							l5.4-19.6c0.4-1.5,0.8-2.6,1.3-3.4s1.4-1.1,2.6-1c0.9,0.1,1.7,0.4,2.2,1c0.6,0.6,0.9,1.4,0.8,2.2c0,0.7-0.2,1.7-0.6,3
							l-6.8,22.5c-0.2,0.6-0.4,1.4-0.7,2.2c-0.2,0.8-0.6,1.4-1,2s-0.8,1-1.4,1.3c-0.6,0.3-1.3,0.4-2.1,0.4c-1-0.1-1.8-0.3-2.5-1
							c-0.6-0.6-1-1.2-1.3-1.8c-0.2-0.7-0.5-1.8-0.9-3.4l-4.6-20.5l-6.5,20C616.2,722.4,615.8,723.6,615.4,724.2z"/>
						<path class="st9" d="M571.1,722c-0.2,0.6-0.7,1.2-1.4,1.7c-0.6,0.5-1.5,0.7-2.6,0.6c-1.1-0.1-1.9-0.4-2.6-1
							c-0.6-0.6-1-1.2-1.2-1.9s-0.5-1.8-0.8-3.4l-4.5-23.1c-0.2-1.4-0.4-2.4-0.3-3c0.1-0.9,0.4-1.6,1-2.2c0.6-0.6,1.4-0.8,2.3-0.8
							c0.9,0.1,1.6,0.3,2,0.8c0.5,0.5,0.7,1,0.9,1.6s0.3,1.4,0.5,2.5l3.4,20l5.9-18.2c0.5-1.5,0.9-2.6,1.1-3.2
							c0.2-0.6,0.7-1.3,1.4-1.8c0.6-0.6,1.6-0.8,2.7-0.7s2,0.4,2.6,1s1.1,1.2,1.4,2c0.2,0.7,0.6,1.8,0.8,3.3l4.1,18.8l5.4-19.6
							c0.4-1.5,0.8-2.6,1.3-3.4c0.5-0.8,1.4-1.1,2.6-1c0.9,0.1,1.7,0.4,2.2,1c0.6,0.6,0.9,1.4,0.8,2.2c0,0.7-0.2,1.7-0.6,3
							l-6.8,22.5c-0.2,0.6-0.4,1.4-0.7,2.2c-0.2,0.8-0.6,1.4-1,2s-0.8,1-1.4,1.3c-0.6,0.3-1.3,0.4-2.1,0.4c-1-0.1-1.8-0.3-2.5-1
							c-0.6-0.6-1-1.2-1.3-1.8c-0.2-0.6-0.5-1.8-0.9-3.4l-4.6-20.5l-6.5,20C571.8,720.3,571.4,721.4,571.1,722z"/>
					</g>
				</g>
				<g>
					<path class="st5" d="M755.7,602.1c17.6,18.1,32.6,38.9,41.8,62.5c7.9,20.5,11.3,42.4,10.9,64.3c-0.1,6.4-0.5,12.7-1.1,19
						c-0.4,3.8-0.6,7.9-2.2,11.5c-1,2.2-2.1,3.6-4.5,4.2c-2.6,0.7-4.5-0.3-5.6-2.8c-0.4-0.9-4.2,0.4-3.8,1c1.9,4.2,6.9,4.5,10.8,3.1
						c5-1.8,7.4-6.1,8.3-11.2c2.2-12.9,2.3-26.5,1.7-39.4c-1.4-26.3-8.8-51.7-22.1-74.4c-8.5-14.4-18.9-27.4-30.5-39.3
						C758.7,600.2,755.2,601.5,755.7,602.1L755.7,602.1z"/>
				</g>
				<g>
					<path class="st5" d="M669.3,603.9c-11.3,8.1-26.9-3.1-35.3-10.8c-8.6-7.8-15.3-17.6-20.4-28.1c-5-10.4-8.2-21.6-10.1-32.9
						c-2-11.8-2.4-23.9-4-35.8c-1.8-13-5-25.8-12.9-36.5c-0.6-0.9-4.3,0.4-3.6,1.4c16.2,22.3,12.3,51.7,17.6,77.3
						c5,24.1,17,48.1,37.7,62.3c9.8,6.8,23.2,10.9,33.9,3.3C673.9,603,670.1,603.2,669.3,603.9L669.3,603.9z"/>
				</g>
			</g>
		</g>
	</g>
</g>
<g id="_x2018_ëîé_x5F_2" class="st1">
	<g id="XMLID_513_" class="st11">
		<g id="XMLID_441_">
			<path id="XMLID_440_" class="st12" d="M985.5,818.8V358.9c0-8.3-6.7-15.1-15-15.1h-749c-8.2,0-15,6.8-15,15.1v459.9H985.5z"/>
			<path id="XMLID_431_" class="st12" d="M1024.6,861.5H167.3c-23.5,0-42.6-19.1-42.6-42.6v-2.6c0-1.4,1.1-2.5,2.5-2.5h937.5
				c1.4,0,2.5,1.1,2.5,2.5v2.5C1067.2,842.4,1048.1,861.5,1024.6,861.5z"/>
		</g>
		<path id="XMLID_528_" class="st4" d="M995,813.6V358.7c0-8.2-6.7-15-15-15H231c-8.2,0-15,6.7-15,15v454.9H995z"/>
		<g id="XMLID_526_">
			<path id="XMLID_97_" class="st13" d="M995,815.6H216c-1.1,0-2-0.9-2-2V358.7c0-9.4,7.6-17,17-17h749.1c9.4,0,17,7.6,17,17v454.9
				C997,814.7,996.2,815.6,995,815.6z M218,811.6h775V358.7c0-7.2-5.8-13-13-13H231c-7.2,0-13,5.8-13,13V811.6z"/>
		</g>
		<path id="XMLID_524_" class="st4" d="M1034.2,861.5H176.9c-23.5,0-42.6-19.1-42.6-42.6v-2.6c0-1.4,1.1-2.5,2.5-2.5h937.5
			c1.4,0,2.5,1.1,2.5,2.5v2.5C1076.8,842.4,1057.7,861.5,1034.2,861.5z"/>
		<g id="XMLID_522_">
			<path id="XMLID_94_" class="st13" d="M1034.2,863.5H176.9c-24.6,0-44.6-20-44.6-44.6v-2.6c0-2.5,2-4.5,4.5-4.5h937.5
				c2.5,0,4.5,2,4.5,4.5v2.5C1078.8,843.5,1058.8,863.5,1034.2,863.5z M136.8,815.9c-0.3,0-0.5,0.2-0.5,0.5v2.6
				c0,22.4,18.2,40.6,40.6,40.6h857.3c22.4,0,40.6-18.2,40.6-40.6v-2.5c0-0.3-0.2-0.5-0.5-0.5L136.8,815.9L136.8,815.9z"/>
		</g>
		<g id="XMLID_519_">
			<path id="XMLID_88_" class="st4" d="M497.2,813.9c1.2,7.2,7.5,12.7,15,12.7h186.7c7.5,0,13.8-5.5,15-12.7H497.2z"/>
			<path id="XMLID_89_" class="st13" d="M698.9,828.6H512.2c-8.4,0-15.6-6-16.9-14.4c-0.1-0.6,0.1-1.2,0.4-1.6
				c0.4-0.4,0.9-0.7,1.5-0.7h216.6c0.6,0,1.1,0.3,1.5,0.7s0.5,1,0.4,1.6C714.5,822.6,707.3,828.6,698.9,828.6z M499.8,815.9
				c1.9,5.1,6.7,8.7,12.4,8.7h186.7c5.7,0,10.5-3.5,12.4-8.7H499.8z"/>
		</g>
		<rect id="XMLID_515_" x="258.8" y="379.9" class="st4" width="693.4" height="412.1"/>
		<g id="XMLID_514_">
			<rect id="XMLID_45_" x="258.8" y="379.9" class="st14" width="693.4" height="412.1"/>
			<path id="XMLID_85_" class="st13" d="M952.3,794H258.8c-1.1,0-2-0.9-2-2V379.9c0-1.1,0.9-2,2-2h693.4c1.1,0,2,0.9,2,2V792
				C954.3,793.1,953.4,794,952.3,794z M260.8,790h689.4V381.9H260.8V790z"/>
		</g>
	</g>
	<g id="XMLID_425_" class="st11">
		<rect id="XMLID_510_" x="315.2" y="292.9" class="st12" width="577.4" height="499.1"/>
		<path id="XMLID_23_" class="st4" d="M858.9,792H315.2V334.2h566v435.5C881.3,782,871.3,792,858.9,792z"/>
		<rect id="XMLID_22_" x="315.1" y="292.9" class="st15" width="577.4" height="41.2"/>
		<path id="XMLID_508_" class="st16" d="M881.3,334.2H315.1V293h548.8c9.6,0,17.3,7.8,17.3,17.3L881.3,334.2L881.3,334.2z"/>
		<g id="XMLID_507_">
			<path id="XMLID_80_" class="st13" d="M892.6,336.2H315.2c-1.1,0-2-0.9-2-2V293c0-1.1,0.9-2,2-2h577.4c1.1,0,2,0.9,2,2v41.2
				C894.6,335.3,893.7,336.2,892.6,336.2z M317.2,332.2h573.4V295H317.2V332.2z"/>
		</g>
		<g id="XMLID_501_">
			<ellipse id="XMLID_504_" class="st4" cx="348.7" cy="313.6" rx="9.6" ry="9.6"/>
			<ellipse id="XMLID_503_" class="st4" cx="377.3" cy="313.6" rx="9.6" ry="9.6"/>
			<ellipse id="XMLID_502_" class="st4" cx="406" cy="313.6" rx="9.6" ry="9.6"/>
		</g>
		<g id="XMLID_443_">
			<g id="XMLID_446_">
				<path id="XMLID_77_" class="st15" d="M345.8,325.1c-6.4,0-11.6-5.2-11.6-11.6s5.2-11.6,11.6-11.6s11.6,5.2,11.6,11.6
					S352.2,325.1,345.8,325.1z M345.8,306c-4.2,0-7.6,3.4-7.6,7.6s3.4,7.6,7.6,7.6s7.6-3.4,7.6-7.6S350,306,345.8,306z"/>
			</g>
			<g id="XMLID_445_">
				<path id="XMLID_73_" class="st15" d="M374.5,325.1c-6.4,0-11.6-5.2-11.6-11.6s5.2-11.6,11.6-11.6s11.6,5.2,11.6,11.6
					C386,319.9,380.8,325.1,374.5,325.1z M374.5,306c-4.2,0-7.6,3.4-7.6,7.6s3.4,7.6,7.6,7.6s7.6-3.4,7.6-7.6
					C382,309.4,378.6,306,374.5,306z"/>
			</g>
			<g id="XMLID_444_">
				<path id="XMLID_70_" class="st15" d="M403.2,325.1c-6.4,0-11.6-5.2-11.6-11.6s5.2-11.6,11.6-11.6s11.6,5.2,11.6,11.6
					C414.7,319.9,409.5,325.1,403.2,325.1z M403.2,306c-4.2,0-7.6,3.4-7.6,7.6s3.4,7.6,7.6,7.6s7.6-3.4,7.6-7.6
					C410.7,309.4,407.3,306,403.2,306z"/>
			</g>
		</g>
		<g id="XMLID_497_">
			<g id="XMLID_500_">
				<path id="XMLID_66_" class="st13" d="M348.7,325.1c-6.4,0-11.6-5.2-11.6-11.6s5.2-11.6,11.6-11.6s11.6,5.2,11.6,11.6
					C360.2,319.9,355,325.1,348.7,325.1z M348.7,306c-4.2,0-7.6,3.4-7.6,7.6s3.4,7.6,7.6,7.6s7.6-3.4,7.6-7.6
					C356.2,309.4,352.8,306,348.7,306z"/>
			</g>
			<g id="XMLID_499_">
				<path id="XMLID_53_" class="st13" d="M377.3,325.1c-6.4,0-11.6-5.2-11.6-11.6s5.2-11.6,11.6-11.6s11.6,5.2,11.6,11.6
					S383.7,325.1,377.3,325.1z M377.3,306c-4.2,0-7.6,3.4-7.6,7.6s3.4,7.6,7.6,7.6s7.6-3.4,7.6-7.6S381.5,306,377.3,306z"/>
			</g>
			<g id="XMLID_498_">
				<path id="XMLID_50_" class="st13" d="M406,325.1c-6.4,0-11.6-5.2-11.6-11.6s5.2-11.6,11.6-11.6s11.6,5.2,11.6,11.6
					S412.4,325.1,406,325.1z M406,306c-4.2,0-7.6,3.4-7.6,7.6s3.4,7.6,7.6,7.6s7.6-3.4,7.6-7.6S410.2,306,406,306z"/>
			</g>
		</g>
		<g id="XMLID_496_">
			<path id="XMLID_46_" class="st13" d="M892.6,794H315.2c-1.1,0-2-0.9-2-2V292.9c0-1.1,0.9-2,2-2h577.4c1.1,0,2,0.9,2,2V792
				C894.6,793.1,893.7,794,892.6,794z M317.2,790h573.4V294.9H317.2V790z"/>
		</g>
		<g id="XMLID_465_">
			<g id="XMLID_429_">
				<g id="XMLID_531_">
					<path id="XMLID_2_" class="st17" d="M809.7,450.2H398.2c-19.5,0-35.2-15.8-35.2-35.2l0,0c0-19.5,15.8-35.2,35.2-35.2h411.5
						c19.5,0,35.2,15.8,35.2,35.2l0,0C844.9,434.4,829.1,450.2,809.7,450.2z"/>
					<path id="XMLID_42_" class="st17" d="M809.7,450.7H398.2c-19.7,0-35.7-16-35.7-35.7s16-35.7,35.7-35.7h411.5
						c19.7,0,35.7,16,35.7,35.7S829.4,450.7,809.7,450.7z M398.2,380.3c-19.1,0-34.7,15.6-34.7,34.7s15.6,34.7,34.7,34.7h411.5
						c19.1,0,34.7-15.6,34.7-34.7s-15.6-34.7-34.7-34.7H398.2z"/>
				</g>
				<g id="XMLID_283_">
					<g id="XMLID_474_">
						<path id="XMLID_41_" class="st13" d="M802.8,423.9c-32.3,0-64.7,0-97,0c-51.5,0-102.9,0-154.4,0c-11.7,0-23.4,0-35.1,0
							c-2.6,0-9.4,3.9-3.7,3.9c32.3,0,64.7,0,97,0c51.5,0,102.9,0,154.4,0c11.7,0,23.4,0,35.1,0
							C801.8,427.8,808.6,423.9,802.8,423.9L802.8,423.9z"/>
					</g>
					<g id="XMLID_464_">
						<path id="XMLID_40_" class="st13" d="M634.8,403c-34.6,0-69.3,0-103.9,0c-4.9,0-9.9,0-14.8,0c-1.7,0-5,0.6-5.7,2.4
							s0.6,2.8,2.4,2.8c34.6,0,69.3,0,103.9,0c4.9,0,9.9,0,14.8,0c1.7,0,5-0.6,5.7-2.4S636.6,403,634.8,403L634.8,403z"/>
					</g>
				</g>
				<g id="XMLID_428_">
					<circle id="XMLID_92_" class="st8" cx="423.3" cy="414.4" r="64.1"/>
					<g id="XMLID_461_">
						<path id="XMLID_39_" class="st13" d="M485,415.1c-0.2,20.6-10.2,40.2-27.2,51.9c-18,12.4-41.6,13.5-61.1,3.8
							c-38.1-19-46.7-71.7-16.5-101.8c19.7-19.7,49.9-22.5,73.8-8.8c1.2,0.7,5.7-1.1,3.9-2.2c-21.5-12.4-48.6-11.8-69.7,1.1
							c-19.1,11.8-31.2,32.6-31.4,55.1c-0.2,23.1,12.3,45,32.3,56.5c19.1,11,42.9,11.6,62.8,2.2c23-10.9,37.7-33.9,38-59.4
							C489.9,412.6,485,413.4,485,415.1L485,415.1z"/>
					</g>
				</g>
			</g>
			<g id="XMLID_11_">
				<path id="XMLID_13_" class="st13" d="M433.5,382.7c-0.2,3.5-1.9,7.1-2.8,10.4c-1.2,4.8-2.3,9.7-3.1,14.6
					c-1.1,6.6-1.9,13.3-2.3,20c-0.4,6-1.3,12.9,0.6,18.8c0.6,1.7,1.3,3.8,0.2,5.3c-0.8,1.1-2.3,1.4-3.6,1.4c-2.6,0-5.4-1-6.7-3.2
					c-1.2-2.1-0.9-4.7-0.5-7.1c1.6-9.6,3.1-19.2,4.7-28.8c0.7-4.2,2.7-9.9,2.3-14.1c-0.2-2.2-0.1-1.8-2.4-1.9c-1,0-2.1,0-3.1,0
					l0.3-3.6c0.1-3.1,1.2-6.9,3.2-11.3c2.4-5.3,4.8-7.8,7.3-7.7c1.4,0.1,2.8,1,4.1,2.6C433,379.8,433.6,381.3,433.5,382.7z"/>
			</g>
		</g>
		<g id="XMLID_5_">
			<g id="XMLID_6_">
				<g id="XMLID_34_">
					<path id="XMLID_29_" class="st0" d="M809.7,601.2H398.2c-19.5,0-35.2-15.8-35.2-35.2l0,0c0-19.5,15.8-35.2,35.2-35.2h411.5
						c19.5,0,35.2,15.8,35.2,35.2l0,0C844.9,585.4,829.1,601.2,809.7,601.2z"/>
					<g id="XMLID_21_">
						<g id="XMLID_28_">
							<path id="XMLID_38_" class="st18" d="M802.8,575c-32.3,0-64.7,0-97,0c-51.5,0-102.9,0-154.4,0c-11.7,0-23.4,0-35.1,0
								c-2.6,0-9.4,3.9-3.7,3.9c32.3,0,64.7,0,97,0c51.5,0,102.9,0,154.4,0c11.7,0,23.4,0,35.1,0C801.8,578.8,808.6,575,802.8,575
								L802.8,575z"/>
						</g>
						<g id="XMLID_27_">
							<path id="XMLID_37_" class="st18" d="M634.8,554c-34.6,0-69.3,0-103.9,0c-4.9,0-9.9,0-14.8,0c-1.7,0-5,0.6-5.7,2.4
								c-0.7,1.8,0.6,2.8,2.4,2.8c34.6,0,69.3,0,103.9,0c4.9,0,9.9,0,14.8,0c1.7,0,5-0.6,5.7-2.4C637.9,555,636.6,554,634.8,554
								L634.8,554z"/>
						</g>
					</g>
				</g>
				<g id="XMLID_7_">
					
						<ellipse id="XMLID_15_" transform="matrix(0.7071 -0.7071 0.7071 0.7071 -275.1071 464.6109)" class="st0" cx="423.3" cy="564.4" rx="64.1" ry="64.1"/>
				</g>
			</g>
		</g>
		<g id="XMLID_30_">
			<g id="XMLID_31_">
				<path id="XMLID_82_" class="st0" d="M809.7,751.2H398.2c-19.5,0-35.2-15.8-35.2-35.2l0,0c0-19.5,15.8-35.2,35.2-35.2h411.5
					c19.5,0,35.2,15.8,35.2,35.2l0,0C844.9,735.4,829.1,751.2,809.7,751.2z"/>
				<g id="XMLID_69_">
					<g id="XMLID_81_">
						<path id="XMLID_36_" class="st18" d="M802.8,725c-32.3,0-64.7,0-97,0c-51.5,0-102.9,0-154.4,0c-11.7,0-23.4,0-35.1,0
							c-2.6,0-9.4,3.9-3.7,3.9c32.3,0,64.7,0,97,0c51.5,0,102.9,0,154.4,0c11.7,0,23.4,0,35.1,0C801.8,728.8,808.6,725,802.8,725
							L802.8,725z"/>
					</g>
					<g id="XMLID_75_">
						<path id="XMLID_35_" class="st18" d="M634.8,704c-34.6,0-69.3,0-103.9,0c-4.9,0-9.9,0-14.8,0c-1.7,0-5,0.6-5.7,2.4
							c-0.7,1.8,0.6,2.8,2.4,2.8c34.6,0,69.3,0,103.9,0c4.9,0,9.9,0,14.8,0c1.7,0,5-0.6,5.7-2.4C637.9,705,636.6,704,634.8,704
							L634.8,704z"/>
					</g>
				</g>
				<g id="XMLID_33_">
					<circle id="XMLID_63_" class="st0" cx="423.3" cy="714.4" r="64.1"/>
					<g id="XMLID_24_">
						<path id="XMLID_25_" class="st18" d="M452,724.2c0,16.1-17.9,24.9-31.9,24.9c-5.2,0-10-0.6-14.3-1.7c-2.8-0.7-5.6-2.2-8.3-4.4
							c-3.3-2.6-4.9-5.1-4.9-7.6c0-1.2,0.5-2.2,1.6-3.2c1.1-0.9,2.2-1.4,3.4-1.4c2,0,3.5,0.9,4.5,2.8c1.3,2.8,2.4,4.5,3.3,5.3
							c2.3,1.9,6.1,2.8,11.4,2.8c9,0,22.1-4.4,24.4-14.3c1.8-7.7-4.8-11.6-11.5-12.6c-3.3-0.5-6.8-0.5-10.1,0.2
							c-4.6,1-9.3,4.1-14.2,2.7c-4.1-1.2-4-5.1-1.4-7.9c4.9-5.1,14-1.4,19.7-5.4c4.7-3.3,16.8-20,3.6-20c-5.4,0-14.5,3.3-16.7,8.5
							c-1.1,2.5-2.2,4-4.4,5.8c-2.4,1.8-4.3,2.7-5.9,2.7c-1.2,0-2.4-0.4-3.6-1.3c-1.2-0.9-1.8-1.9-1.8-3c0-1.5,0.9-3.5,2.8-5.9
							c3.1-4,7.5-7.5,13.5-10.6c5.7-3,12.9-5.2,19.5-4.4c8.5,1.1,13.8,8.4,11.9,16.9c-0.6,2.5-1.6,4.9-3,7.1
							c-0.7,1.1-4.3,6.7-5.6,6.4C446,709.6,452,715.4,452,724.2z"/>
					</g>
				</g>
			</g>
		</g>
		<path id="XMLID_18_" class="st18" d="M451,588.7c0,1-0.4,1.9-1.1,2.9c-0.7,0.9-1.5,1.4-2.5,1.4c-6.1,0-9.5-1.4-15.5,0.6
			c-6.4,2-13.4,2.8-20.1,3c-4.2,0.2-10.3,2.5-13.9-0.4c-1.2-1-1.8-2.4-1.8-4c0-1.8,0.9-3.5,2.6-5.4c4-4.2,9-7.4,13.2-11.4
			c9.1-8.6,21.6-21.4,21.6-34.9c0-7.4-8.4-9.5-14.3-8.3c-2.5,0.5-4.9,1.5-6.7,3.2c-3.4,3.3-3.7,8.4-4.9,12.7c-1.3,4.8-4.2,8.7-9,4.8
			c-1.5-1.2-2.3-2.3-2.3-3.3c0-4.1,1.9-8.6,5.8-13.2c3.5-4.3,7.3-7.5,11.4-9.5c3.6-1.7,7.4-2.5,11.4-2.5c4.9,0,9.3,1.8,13.1,5.3
			c3.8,3.5,5.7,7.7,5.7,12.6c0,7.4-3.7,15.2-11.1,23.7c-6.8,7.7-15.1,14.4-22.6,21.3c1.4-1.3,8.2-1.2,10.3-1.5
			c3.6-0.5,7.2-1.1,10.8-1.6c4.5-0.7,9-1.3,13.5-2c0.3-0.1,0.7-0.1,1.2-0.1c1.6,0,2.9,0.7,3.9,2.1C450.5,585.5,451,587,451,588.7z"
			/>
	</g>
	<g id="XMLID_17_" class="st11">
		<g id="XMLID_8_">
			<path id="XMLID_20_" class="st8" d="M488.1,917.6c25.2-60.5,53.9-119.1,84.4-177c12.5-23.7,24.8-47.7,40.2-69.6
				c7.5-10.6,15.7-20.7,25.1-29.5c9-8.5,19.9-17.3,32-20.8c24.1-6.9,47.1,11.7,64.6,25.6c4.9,3.9,9.8,7.9,14.8,11.7
				c5.1,4,10.3,8.4,16.5,10.6c12.9,4.6,26-1.6,35.9-9.8c12.1-10.1,22.2-23,32.9-34.6c11-12,22.1-24,33.1-36
				c22.1-24.1,43.9-48.5,64.8-73.7c42.1-50.6,80.3-104.6,115.4-160.3c4.4-7,8.8-14.1,13.1-21.1c3.1-5.1-9-4.4-11.3-0.6
				c-34.4,56.4-72,111.2-113.3,162.8c-41.3,51.5-86.9,99.2-131.4,147.9c-8.2,8.9-20.2,24.5-33.8,17.3c-5.8-3-11-7.7-16.2-11.8
				c-4.9-3.9-9.8-7.9-14.8-11.7c-18.6-14.5-40.3-28.6-65-24.7c-25.1,4-46.4,23.7-62,42.7c-16.9,20.6-30.1,43.8-42.6,67.3
				c-30,56.3-58.7,113.1-84,171.7c-3.3,7.6-6.5,15.3-9.7,23C474.4,922.7,486.4,921.7,488.1,917.6L488.1,917.6z"/>
		</g>
		<g id="XMLID_12_">
			<path id="XMLID_14_" class="st8" d="M1003.6,369.8c11-6.8,22-13.7,32.4-21.6c5.3-4,9.9-8.7,15.2-12.7c3.2-2.4,1.8-1.1,0.6,1.4
				c-1.2,2.4-2.1,4.9-3,7.4c-8.9,25-10.4,52.4-5,78.3c0.7,3.6,8,1.7,7.2-1.9c-3.2-15.6-3.9-31.5-1.8-47.3c1.1-8.4,2.8-16.6,5.4-24.6
				c1.1-3.3,2.1-6.6,3.6-9.7c0.9-1.9,2.4-3.8,2.5-5.9c0.3-4.3-4.3-5.2-7.7-4.6c-5.7,1-9.8,6.1-14.1,9.7
				c-12,10.2-25.3,18.6-38.6,26.9C996.1,367.7,1000,372,1003.6,369.8L1003.6,369.8z"/>
		</g>
	</g>
</g>
<g id="_x2018_ëîé_x5F_3" class="st1">
</g>
</svg>
