<?xml version="1.0" encoding="utf-8"?>
<!-- Generator: Adobe Illustrator 24.1.0, SVG Export Plug-In . SVG Version: 6.00 Build 0)  -->
<svg version="1.1" xmlns="http://www.w3.org/2000/svg" xmlns:xlink="http://www.w3.org/1999/xlink" x="0px" y="0px"
	 viewBox="0 0 1200 1200" style="enable-background:new 0 0 1200 1200;" xml:space="preserve">
<style type="text/css">
	.st0{opacity:0.25;fill:#F9F9F9;}
	.st1{fill:#6A79A8;}
	.st2{fill:#E5E5E5;}
	.st3{fill:#FFFFFF;}
	.st4{fill:#F0F9FC;}
	.st5{display:none;}
	.st6{display:inline;fill:#E5E5E5;}
	.st7{display:inline;fill:#FFFFFF;}
	.st8{display:inline;fill:#BBDFF5;}
	.st9{display:inline;fill:#DEF3F9;}
	.st10{display:inline;}
	.st11{fill:#BBDFF5;}
	.st12{fill:#CFDDFF;}
	.st13{fill:#BCCCF7;}
	.st14{fill:#96ABE0;}
	.st15{fill:#F9F9F9;}
	.st16{fill:#D1D1D1;}
	.st17{display:inline;fill:#D1D1D1;}
	.st18{fill:#D5F2F8;}
	.st19{fill:#637AAA;}
	.st20{fill:#ECF8FB;}
	.st21{fill:#FFEFA6;}
	.st22{fill:#ABDFF5;}
</style>
<g id="_x2018_ëîé_x5F_1_x5F_1_x5F_">
	<path id="XMLID_1_" class="st0" d="M377.6,994.2c-19.5-3.9-253.2-39.4-236-301.2s38.8-340.4,129.7-369.2
		c90.9-28.8,311.8-165.1,485.1-35.5s360.4,245.8,286.1,452.6c-74.2,206.9-86.4,275.9-280,265.3
		C568.9,995.7,470.1,1012.9,377.6,994.2z"/>
	<g id="XMLID_10_">
	</g>
	<g id="XMLID_3_">
		<path id="XMLID_4_" class="st1" d="M452.3,444.1c-0.2,3.2-1.7,6.4-2.5,9.5c-1.1,4.4-2.1,8.8-2.8,13.3c-1,6-1.7,12.1-2.1,18.1
			c-0.3,5.5-1.2,11.7,0.6,17.1c0.5,1.6,1.2,3.4,0.2,4.8c-0.7,1-2.1,1.3-3.3,1.3c-2.4,0-4.9-0.9-6.1-2.9c-1.1-1.9-0.8-4.3-0.4-6.4
			c1.4-8.7,2.8-17.4,4.3-26.1c0.6-3.8,2.5-9,2.1-12.8c-0.2-2-0.1-1.6-2.2-1.7c-0.9,0-1.9,0-2.8,0l0.2-3.2c0.1-2.8,1.1-6.3,2.9-10.3
			c2.2-4.8,4.4-7.1,6.6-7c1.3,0.1,2.5,0.9,3.8,2.4C451.8,441.4,452.4,442.8,452.3,444.1z"/>
	</g>
</g>
<g id="_x2018_ëîé_x5F_2">
	<g id="XMLID_227_">
		<g id="XMLID_249_">
			<path id="XMLID_251_" class="st2" d="M954.4,844.4V426.8c0-7.6-6.1-13.7-13.6-13.7H260.6c-7.5,0-13.6,6.2-13.6,13.7v417.6H954.4z
				"/>
			<path id="XMLID_250_" class="st2" d="M989.9,883.2H211.5c-21.3,0-38.6-17.3-38.6-38.6v-2.3c0-1.3,1-2.3,2.3-2.3h851.2
				c1.3,0,2.3,1,2.3,2.3v2.3C1028.6,865.8,1011.2,883.2,989.9,883.2z"/>
		</g>
		<path id="XMLID_248_" class="st3" d="M963.1,839.7v-413c0-7.5-6.1-13.6-13.6-13.6H269.3c-7.5,0-13.6,6.1-13.6,13.6v413H963.1z"/>
		<g id="XMLID_244_">
			<path id="XMLID_245_" class="st1" d="M963.1,841.5H255.7c-1,0-1.8-0.8-1.8-1.8v-413c0-8.5,6.9-15.4,15.4-15.4h680.2
				c8.5,0,15.4,6.9,15.4,15.4v413C964.9,840.7,964.1,841.5,963.1,841.5z M257.5,837.8h703.7V426.6c0-6.5-5.3-11.8-11.8-11.8H269.3
				c-6.5,0-11.8,5.3-11.8,11.8V837.8z"/>
		</g>
		<path id="XMLID_243_" class="st3" d="M998.6,883.2H220.1c-21.3,0-38.6-17.3-38.6-38.6v-2.3c0-1.3,1-2.3,2.3-2.3H1035
			c1.3,0,2.3,1,2.3,2.3v2.3C1037.3,865.8,1019.9,883.2,998.6,883.2z"/>
		<g id="XMLID_239_">
			<path id="XMLID_240_" class="st1" d="M998.6,885H220.1c-22.3,0-40.5-18.1-40.5-40.5v-2.3c0-2.3,1.8-4.1,4.1-4.1H1035
				c2.3,0,4.1,1.8,4.1,4.1v2.3C1039.1,866.8,1020.9,885,998.6,885z M183.8,841.8c-0.2,0-0.5,0.2-0.5,0.4v2.3
				c0,20.3,16.5,36.8,36.8,36.8h778.4c20.3,0,36.9-16.5,36.9-36.9v-2.3c0-0.2-0.2-0.4-0.4-0.4H183.8z"/>
		</g>
		<g id="XMLID_234_">
			<path id="XMLID_238_" class="st3" d="M511,840c1.1,6.5,6.8,11.5,13.6,11.5h169.5c6.8,0,12.5-5,13.6-11.5H511z"/>
			<path id="XMLID_235_" class="st1" d="M694.1,853.3H524.6c-7.7,0-14.1-5.5-15.4-13c-0.1-0.5,0.1-1.1,0.4-1.5
				c0.3-0.4,0.9-0.6,1.4-0.6h196.7c0.5,0,1,0.2,1.4,0.6c0.3,0.4,0.5,0.9,0.4,1.5C708.3,847.8,701.8,853.3,694.1,853.3z M513.4,841.8
				c1.7,4.7,6.1,7.9,11.3,7.9h169.5c5.1,0,9.6-3.2,11.3-7.9H513.4z"/>
		</g>
		<rect id="XMLID_233_" x="294.6" y="445.9" class="st3" width="629.6" height="374.2"/>
		<g id="XMLID_228_">
			<rect id="XMLID_232_" x="294.6" y="445.9" class="st4" width="629.6" height="374.2"/>
			<path id="XMLID_229_" class="st1" d="M924.2,821.9H294.6c-1,0-1.8-0.8-1.8-1.8V445.9c0-1,0.8-1.8,1.8-1.8h629.6
				c1,0,1.8,0.8,1.8,1.8v374.2C926,821.1,925.2,821.9,924.2,821.9z M296.4,818.3h626V447.7h-626V818.3z"/>
		</g>
	</g>
	<g id="XMLID_11_" class="st5">
		<rect id="XMLID_226_" x="345.8" y="366.9" class="st6" width="524.3" height="453.2"/>
		<path id="XMLID_225_" class="st7" d="M837.4,820.1H345.8V404.4h514v393.4C859.7,810.1,849.7,820.1,837.4,820.1z"/>
		<rect id="XMLID_224_" x="345.6" y="366.9" class="st8" width="524.3" height="37.4"/>
		<path id="XMLID_223_" class="st9" d="M859.7,404.4H345.6v-37.4h496.7c9.6,0,17.3,7.8,17.3,17.3V404.4z"/>
		<g id="XMLID_219_" class="st10">
			<path id="XMLID_220_" class="st1" d="M870.1,406.2H345.8c-1,0-1.8-0.8-1.8-1.8v-37.4c0-1,0.8-1.8,1.8-1.8h524.3
				c1,0,1.8,0.8,1.8,1.8v37.4C871.9,405.4,871.1,406.2,870.1,406.2z M347.6,402.5h520.6v-33.8H347.6V402.5z"/>
		</g>
		<g id="XMLID_99_" class="st10">
			
				<ellipse id="XMLID_218_" transform="matrix(0.973 -0.2307 0.2307 0.973 -78.8187 97.1731)" class="st3" cx="376.1" cy="385.6" rx="8.7" ry="8.7"/>
			
				<ellipse id="XMLID_217_" transform="matrix(0.9787 -0.2053 0.2053 0.9787 -70.6034 90.7783)" class="st3" cx="402.2" cy="385.6" rx="8.7" ry="8.7"/>
			
				<ellipse id="XMLID_216_" transform="matrix(0.987 -0.1607 0.1607 0.987 -56.3934 73.8057)" class="st3" cx="428.2" cy="385.6" rx="8.7" ry="8.7"/>
		</g>
		<g id="XMLID_85_" class="st10">
			<g id="XMLID_95_">
				<path id="XMLID_96_" class="st11" d="M373.5,396.1c-5.8,0-10.5-4.7-10.5-10.5c0-5.8,4.7-10.5,10.5-10.5s10.5,4.7,10.5,10.5
					C384,391.4,379.3,396.1,373.5,396.1z M373.5,378.8c-3.8,0-6.9,3.1-6.9,6.9c0,3.8,3.1,6.9,6.9,6.9c3.8,0,6.9-3.1,6.9-6.9
					C380.4,381.8,377.3,378.8,373.5,378.8z"/>
			</g>
			<g id="XMLID_90_">
				<path id="XMLID_91_" class="st11" d="M399.6,396.1c-5.8,0-10.5-4.7-10.5-10.5c0-5.8,4.7-10.5,10.5-10.5
					c5.8,0,10.5,4.7,10.5,10.5C410.1,391.4,405.3,396.1,399.6,396.1z M399.6,378.8c-3.8,0-6.9,3.1-6.9,6.9c0,3.8,3.1,6.9,6.9,6.9
					c3.8,0,6.9-3.1,6.9-6.9C406.4,381.8,403.3,378.8,399.6,378.8z"/>
			</g>
			<g id="XMLID_86_">
				<path id="XMLID_87_" class="st11" d="M425.6,396.1c-5.8,0-10.5-4.7-10.5-10.5c0-5.8,4.7-10.5,10.5-10.5s10.5,4.7,10.5,10.5
					C436.1,391.4,431.4,396.1,425.6,396.1z M425.6,378.8c-3.8,0-6.9,3.1-6.9,6.9c0,3.8,3.1,6.9,6.9,6.9c3.8,0,6.9-3.1,6.9-6.9
					C432.5,381.8,429.4,378.8,425.6,378.8z"/>
			</g>
		</g>
		<g id="XMLID_72_" class="st10">
			<g id="XMLID_81_">
				<path id="XMLID_82_" class="st1" d="M376.1,396.1c-5.8,0-10.5-4.7-10.5-10.5c0-5.8,4.7-10.5,10.5-10.5s10.5,4.7,10.5,10.5
					C386.6,391.4,381.9,396.1,376.1,396.1z M376.1,378.8c-3.8,0-6.9,3.1-6.9,6.9c0,3.8,3.1,6.9,6.9,6.9c3.8,0,6.9-3.1,6.9-6.9
					C383,381.8,379.9,378.8,376.1,378.8z"/>
			</g>
			<g id="XMLID_77_">
				<path id="XMLID_78_" class="st1" d="M402.2,396.1c-5.8,0-10.5-4.7-10.5-10.5c0-5.8,4.7-10.5,10.5-10.5c5.8,0,10.5,4.7,10.5,10.5
					C412.7,391.4,408,396.1,402.2,396.1z M402.2,378.8c-3.8,0-6.9,3.1-6.9,6.9c0,3.8,3.1,6.9,6.9,6.9c3.8,0,6.9-3.1,6.9-6.9
					C409,381.8,406,378.8,402.2,378.8z"/>
			</g>
			<g id="XMLID_73_">
				<path id="XMLID_74_" class="st1" d="M428.2,396.1c-5.8,0-10.5-4.7-10.5-10.5c0-5.8,4.7-10.5,10.5-10.5c5.8,0,10.5,4.7,10.5,10.5
					C438.7,391.4,434,396.1,428.2,396.1z M428.2,378.8c-3.8,0-6.9,3.1-6.9,6.9c0,3.8,3.1,6.9,6.9,6.9c3.8,0,6.9-3.1,6.9-6.9
					C435.1,381.8,432,378.8,428.2,378.8z"/>
			</g>
		</g>
		<g id="XMLID_68_" class="st10">
			<path id="XMLID_69_" class="st1" d="M870.1,821.9H345.8c-1,0-1.8-0.8-1.8-1.8V366.9c0-1,0.8-1.8,1.8-1.8h524.3
				c1,0,1.8,0.8,1.8,1.8v453.2C871.9,821.1,871.1,821.9,870.1,821.9z M347.6,818.3h520.6V368.7H347.6V818.3z"/>
		</g>
		<g id="XMLID_39_" class="st10">
			<g id="XMLID_43_">
				<g id="XMLID_63_">
					<path id="XMLID_67_" class="st12" d="M798.8,509.7H417c-15.4,0-27.9-12.5-27.9-27.9v-8.2c0-15.4,12.5-27.9,27.9-27.9h381.8
						c15.4,0,27.9,12.5,27.9,27.9v8.2C826.7,497.2,814.2,509.7,798.8,509.7z"/>
					<path id="XMLID_64_" class="st13" d="M794.7,510.2H421.1c-17.9,0-32.4-14.6-32.4-32.4s14.5-32.4,32.4-32.4h373.6
						c17.9,0,32.4,14.5,32.4,32.4S812.6,510.2,794.7,510.2z M421.1,446.2c-17.4,0-31.5,14.1-31.5,31.5c0,17.4,14.1,31.5,31.5,31.5
						h373.6c17.4,0,31.5-14.1,31.5-31.5c0-17.4-14.1-31.5-31.5-31.5H421.1z"/>
				</g>
				<g id="XMLID_49_">
					<g id="XMLID_52_">
						<path id="XMLID_53_" class="st1" d="M788.5,485.9c-29.4,0-58.7,0-88.1,0c-46.7,0-93.5,0-140.2,0c-10.6,0-21.2,0-31.9,0
							c-2.4,0-8.6,3.5-3.3,3.5c29.4,0,58.7,0,88.1,0c46.7,0,93.5,0,140.2,0c10.6,0,21.2,0,31.9,0
							C787.6,489.4,793.8,485.9,788.5,485.9L788.5,485.9z"/>
					</g>
					<g id="XMLID_50_">
						<path id="XMLID_51_" class="st1" d="M635.9,466.9c-31.4,0-62.9,0-94.3,0c-4.5,0-9,0-13.4,0c-1.6,0-4.5,0.5-5.2,2.2
							c-0.6,1.6,0.6,2.5,2.2,2.5c31.4,0,62.9,0,94.3,0c4.5,0,9,0,13.4,0c1.6,0,4.5-0.5,5.2-2.2C638.8,467.8,637.6,466.9,635.9,466.9
							L635.9,466.9z"/>
					</g>
				</g>
				<g id="XMLID_44_">
					<circle id="XMLID_48_" class="st14" cx="443.9" cy="477.2" r="58.2"/>
					<g id="XMLID_45_">
						<path id="XMLID_46_" class="st1" d="M499.9,477.8c-0.2,18.7-9.2,36.5-24.7,47.1c-16.3,11.2-37.8,12.3-55.5,3.5
							c-34.6-17.2-42.4-65.1-15-92.4c17.9-17.9,45.3-20.4,67-7.9c1.1,0.6,5.1-1,3.5-2c-19.5-11.2-44.1-10.8-63.3,1
							c-17.3,10.7-28.3,29.6-28.5,50c-0.2,21,11.2,40.8,29.3,51.3c17.3,10,39,10.5,57,2c20.9-9.9,34.3-30.8,34.5-53.9
							C504.3,475.5,500,476.3,499.9,477.8L499.9,477.8z"/>
					</g>
				</g>
			</g>
			<g id="XMLID_40_">
				<path id="XMLID_41_" class="st1" d="M453.2,448.5c-0.2,3.2-1.7,6.4-2.5,9.5c-1.1,4.4-2.1,8.8-2.8,13.3c-1,6-1.7,12.1-2.1,18.1
					c-0.3,5.5-1.2,11.7,0.6,17.1c0.5,1.6,1.2,3.4,0.2,4.8c-0.7,1-2.1,1.3-3.3,1.3c-2.4,0-4.9-0.9-6.1-2.9c-1.1-1.9-0.8-4.3-0.4-6.4
					c1.4-8.7,2.8-17.4,4.3-26.1c0.6-3.8,2.5-9,2.1-12.8c-0.2-2-0.1-1.6-2.2-1.7c-0.9,0-1.9,0-2.8,0l0.2-3.2
					c0.1-2.8,1.1-6.3,2.9-10.3c2.2-4.8,4.4-7.1,6.6-7c1.3,0.1,2.5,0.9,3.8,2.4C452.7,445.8,453.3,447.2,453.2,448.5z"/>
			</g>
		</g>
		<g id="XMLID_27_" class="st10">
			<g id="XMLID_28_">
				<g id="XMLID_31_">
					<path id="XMLID_38_" class="st15" d="M794.7,646.8H421.1c-17.7,0-32-14.3-32-32l0,0c0-17.7,14.3-32,32-32h373.6
						c17.7,0,32,14.3,32,32l0,0C826.7,632.5,812.4,646.8,794.7,646.8z"/>
					<g id="XMLID_33_">
						<g id="XMLID_36_">
							<path id="XMLID_37_" class="st16" d="M788.5,623c-29.4,0-58.7,0-88.1,0c-46.7,0-93.5,0-140.2,0c-10.6,0-21.2,0-31.9,0
								c-2.4,0-8.6,3.5-3.3,3.5c29.4,0,58.7,0,88.1,0c46.7,0,93.5,0,140.2,0c10.6,0,21.2,0,31.9,0C787.6,626.5,793.8,623,788.5,623
								L788.5,623z"/>
						</g>
						<g id="XMLID_34_">
							<path id="XMLID_35_" class="st16" d="M635.9,604c-31.4,0-62.9,0-94.3,0c-4.5,0-9,0-13.4,0c-1.6,0-4.5,0.5-5.2,2.2
								c-0.6,1.6,0.6,2.5,2.2,2.5c31.4,0,62.9,0,94.3,0c4.5,0,9,0,13.4,0c1.6,0,4.5-0.5,5.2-2.2C638.8,604.9,637.6,604,635.9,604
								L635.9,604z"/>
						</g>
					</g>
				</g>
				<g id="XMLID_29_">
					
						<ellipse id="XMLID_30_" transform="matrix(0.7071 -0.7071 0.7071 0.7071 -303.7345 493.5509)" class="st15" cx="443.9" cy="613.4" rx="58.2" ry="58.2"/>
				</g>
			</g>
		</g>
		<g id="XMLID_14_" class="st10">
			<g id="XMLID_15_">
				<path id="XMLID_26_" class="st15" d="M798.8,783H417c-15.4,0-27.9-12.5-27.9-27.9V747c0-15.4,12.5-27.9,27.9-27.9h381.8
					c15.4,0,27.9,12.5,27.9,27.9v8.2C826.7,770.5,814.2,783,798.8,783z"/>
				<g id="XMLID_21_">
					<g id="XMLID_24_">
						<path id="XMLID_25_" class="st16" d="M788.5,759.2c-29.4,0-58.7,0-88.1,0c-46.7,0-93.5,0-140.2,0c-10.6,0-21.2,0-31.9,0
							c-2.4,0-8.6,3.5-3.3,3.5c29.4,0,58.7,0,88.1,0c46.7,0,93.5,0,140.2,0c10.6,0,21.2,0,31.9,0
							C787.6,762.7,793.8,759.2,788.5,759.2L788.5,759.2z"/>
					</g>
					<g id="XMLID_22_">
						<path id="XMLID_23_" class="st16" d="M635.9,740.2c-31.4,0-62.9,0-94.3,0c-4.5,0-9,0-13.4,0c-1.6,0-4.5,0.5-5.2,2.2
							c-0.6,1.6,0.6,2.5,2.2,2.5c31.4,0,62.9,0,94.3,0c4.5,0,9,0,13.4,0c1.6,0,4.5-0.5,5.2-2.2C638.8,741.1,637.6,740.2,635.9,740.2
							L635.9,740.2z"/>
					</g>
				</g>
				<g id="XMLID_16_">
					<circle id="XMLID_20_" class="st15" cx="443.9" cy="749.6" r="58.2"/>
					<g id="XMLID_17_">
						<path id="XMLID_18_" class="st16" d="M470,758.5c0,14.6-16.2,22.6-28.9,22.6c-4.7,0-9-0.5-12.9-1.5c-2.5-0.6-5-2-7.6-4
							c-3-2.3-4.4-4.6-4.4-6.9c0-1.1,0.5-2,1.5-2.9c1-0.9,2-1.3,3.1-1.3c1.8,0,3.2,0.9,4.1,2.6c1.2,2.5,2.2,4.1,3,4.8
							c2.1,1.7,5.5,2.6,10.4,2.6c8.2,0,20-4,22.1-13c1.6-7-4.4-10.6-10.5-11.5c-3-0.4-6.2-0.4-9.2,0.2c-4.2,0.9-8.4,3.7-12.9,2.5
							c-3.8-1-3.6-4.7-1.2-7.2c4.4-4.6,12.7-1.2,17.9-4.9c4.3-3,15.3-18.2,3.3-18.2c-4.9,0-13.1,3-15.2,7.7c-1,2.2-2,3.7-4,5.3
							c-2.1,1.6-3.9,2.5-5.4,2.5c-1.1,0-2.2-0.4-3.3-1.2c-1.1-0.8-1.7-1.7-1.7-2.7c0-1.4,0.9-3.2,2.6-5.4c2.8-3.6,6.9-6.8,12.2-9.6
							c5.2-2.7,11.7-4.7,17.7-4c7.7,1,12.5,7.6,10.8,15.3c-0.5,2.3-1.5,4.5-2.7,6.5c-0.6,1-3.9,6.1-5.1,5.8
							C464.5,745.3,470,750.5,470,758.5z"/>
					</g>
				</g>
			</g>
		</g>
		<path id="XMLID_12_" class="st17" d="M469,635.5c0,0.9-0.3,1.8-1,2.6c-0.6,0.9-1.4,1.3-2.3,1.3c-5.6,0-8.6-1.2-14.1,0.5
			c-5.8,1.9-12.1,2.5-18.2,2.8c-3.8,0.2-9.4,2.3-12.6-0.4c-1.1-0.9-1.7-2.1-1.7-3.7c0-1.6,0.8-3.2,2.4-4.9c3.6-3.8,8.2-6.7,12-10.3
			c8.3-7.8,19.6-19.4,19.6-31.7c0-6.7-7.6-8.6-13-7.6c-2.2,0.4-4.4,1.3-6,2.9c-3.1,3-3.4,7.6-4.4,11.5c-1.2,4.4-3.8,7.9-8.2,4.4
			c-1.4-1.1-2.1-2.1-2.1-3c0-3.8,1.8-7.8,5.3-12c3.2-3.9,6.6-6.8,10.3-8.6c3.2-1.5,6.7-2.3,10.3-2.3c4.5,0,8.4,1.6,11.9,4.8
			c3.5,3.2,5.2,7,5.2,11.5c0,6.7-3.4,13.8-10.1,21.5c-6.2,7-13.7,13-20.6,19.4c1.2-1.1,7.5-1.1,9.3-1.4c3.3-0.5,6.5-1,9.8-1.5
			c4.1-0.6,8.1-1.2,12.2-1.8c0.3-0.1,0.7-0.1,1.1-0.1c1.5,0,2.6,0.6,3.5,1.9C468.6,632.6,469,633.9,469,635.5z"/>
	</g>
	<g>
		<rect x="346.2" y="378.9" class="st3" width="521.4" height="441.3"/>
		<rect x="351.4" y="384" class="st18" width="521.4" height="36.5"/>
		<g>
			<path class="st19" d="M867.7,417.1H346.2c-1,0-1.7-0.8-1.7-1.7v-36.5c0-0.9,0.8-1.7,1.7-1.7h521.4c1,0,1.7,0.8,1.7,1.7v36.5
				C869.4,416.3,868.6,417.1,867.7,417.1z M347.9,413.7h518v-33.1h-518V413.7z"/>
		</g>
		<g>
			<ellipse class="st3" cx="380.7" cy="401.4" rx="8.6" ry="8.5"/>
			<ellipse class="st3" cx="406.6" cy="401.4" rx="8.6" ry="8.5"/>
			<ellipse class="st3" cx="432.5" cy="401.4" rx="8.6" ry="8.5"/>
		</g>
		<g>
			<g>
				<path class="st19" d="M376.4,407.3c-5.7,0-10.4-4.6-10.4-10.1s4.6-10.1,10.4-10.1s10.4,4.6,10.4,10.1S382.1,407.3,376.4,407.3z
					 M376.4,390.4c-3.8,0-6.9,3-6.9,6.8c0,3.7,3.1,6.8,6.9,6.8c3.8,0,6.9-3,6.9-6.8C383.3,393.4,380.2,390.4,376.4,390.4z"/>
			</g>
			<g>
				<path class="st19" d="M402.3,407.3c-5.7,0-10.4-4.6-10.4-10.1s4.6-10.1,10.4-10.1c5.7,0,10.4,4.6,10.4,10.1
					S408,407.3,402.3,407.3z M402.3,390.4c-3.8,0-6.9,3-6.9,6.8c0,3.7,3.1,6.8,6.9,6.8c3.8,0,6.9-3,6.9-6.8
					C409.2,393.4,406.1,390.4,402.3,390.4z"/>
			</g>
			<g>
				<path class="st19" d="M428.2,407.3c-5.7,0-10.4-4.6-10.4-10.1s4.6-10.1,10.4-10.1s10.4,4.6,10.4,10.1S433.9,407.3,428.2,407.3z
					 M428.2,390.4c-3.8,0-6.9,3-6.9,6.8c0,3.7,3.1,6.8,6.9,6.8c3.8,0,6.9-3,6.9-6.8C435.1,393.4,432,390.4,428.2,390.4z"/>
			</g>
		</g>
		<g>
			<path class="st19" d="M867.7,821.9H346.2c-1,0-1.7-0.8-1.7-1.7V378.9c0-0.9,0.8-1.7,1.7-1.7h521.4c1,0,1.7,0.8,1.7,1.7v441.3
				C869.4,821.1,868.6,821.9,867.7,821.9z M347.9,818.5h518V380.6h-518V818.5z"/>
		</g>
		<rect x="474.1" y="778.7" class="st20" width="255.3" height="18"/>
		<g>
			<g>
				<path class="st19" d="M655.1,788.9H547.4c-1,0-1.7-0.8-1.7-1.7c0-0.9,0.8-1.7,1.7-1.7h107.7c1,0,1.7,0.8,1.7,1.7
					C656.9,788.1,656.1,788.9,655.1,788.9z"/>
			</g>
			<g>
				<path class="st19" d="M756.4,772.7H446.2c-1,0-1.7-0.8-1.7-1.7s0.8-1.7,1.7-1.7h310.2c1,0,1.7,0.8,1.7,1.7
					S757.3,772.7,756.4,772.7z"/>
			</g>
		</g>
		<rect x="389.7" y="557.1" class="st20" width="94.3" height="79.7"/>
		<g>
			<polygon class="st20" points="822.5,456.9 655.7,456.9 655.7,536.6 824.6,536.6 824.6,456.9 			"/>
			<g>
				<g>
					<path class="st19" d="M802.8,516.4H676.5c-1,0-1.7-0.8-1.7-1.7c0-0.9,0.8-1.7,1.7-1.7h126.3c1,0,1.7,0.8,1.7,1.7
						C804.5,515.6,803.8,516.4,802.8,516.4z"/>
				</g>
				<g>
					<path class="st19" d="M802.8,498.4h-53.2c-1,0-1.7-0.8-1.7-1.7s0.8-1.7,1.7-1.7h53.2c1,0,1.7,0.8,1.7,1.7
						S803.8,498.4,802.8,498.4z"/>
				</g>
				<g>
					<path class="st19" d="M728.8,498.4h-52.3c-1,0-1.7-0.8-1.7-1.7s0.8-1.7,1.7-1.7h52.3c1,0,1.7,0.8,1.7,1.7
						S729.7,498.4,728.8,498.4z"/>
				</g>
				<g>
					<path class="st19" d="M729.4,480.5h-53.2c-1,0-1.7-0.8-1.7-1.7s0.8-1.7,1.7-1.7h53.2c1,0,1.7,0.8,1.7,1.7
						S730.4,480.5,729.4,480.5z"/>
				</g>
			</g>
		</g>
		<polygon class="st20" points="822.5,557.1 655.7,557.1 655.7,636.7 824.6,636.7 824.6,557.1 		"/>
		<g>
			<polygon class="st20" points="824.2,656.5 657.4,656.5 657.4,736.2 826.3,736.2 826.3,656.5 			"/>
			<g>
				<g>
					<path class="st19" d="M804.5,716H678.2c-1,0-1.7-0.8-1.7-1.7c0-0.9,0.8-1.7,1.7-1.7h126.3c1,0,1.7,0.8,1.7,1.7
						C806.3,715.2,805.5,716,804.5,716z"/>
				</g>
				<g>
					<path class="st19" d="M804.5,698.1h-53.2c-1,0-1.7-0.8-1.7-1.7c0-0.9,0.8-1.7,1.7-1.7h53.2c1,0,1.7,0.8,1.7,1.7
						C806.3,697.3,805.5,698.1,804.5,698.1z"/>
				</g>
				<g>
					<path class="st19" d="M730.5,698.1h-52.3c-1,0-1.7-0.8-1.7-1.7c0-0.9,0.8-1.7,1.7-1.7h52.3c1,0,1.7,0.8,1.7,1.7
						C732.2,697.3,731.5,698.1,730.5,698.1z"/>
				</g>
				<g>
					<path class="st19" d="M731.1,680.2H678c-1,0-1.7-0.8-1.7-1.7c0-0.9,0.8-1.7,1.7-1.7h53.2c1,0,1.7,0.8,1.7,1.7
						C732.9,679.4,732.1,680.2,731.1,680.2z"/>
				</g>
			</g>
		</g>
		<rect x="525.5" y="656.5" class="st20" width="94.3" height="79.7"/>
		<g>
			<rect x="390.6" y="457.6" class="st20" width="94.3" height="79.7"/>
			<g>
				<g>
					<path class="st19" d="M463.9,515.9h-53c-1,0-1.7-0.8-1.7-1.7c0-0.9,0.8-1.7,1.7-1.7h53c1,0,1.7,0.8,1.7,1.7
						C465.6,515.1,464.8,515.9,463.9,515.9z"/>
				</g>
				<g>
					<path class="st19" d="M463.2,499.1h-52.3c-1,0-1.7-0.8-1.7-1.7c0-0.9,0.8-1.7,1.7-1.7h52.3c1,0,1.7,0.8,1.7,1.7
						C465,498.4,464.2,499.1,463.2,499.1z"/>
				</g>
				<g>
					<path class="st19" d="M463.9,481.2h-53.2c-1,0-1.7-0.8-1.7-1.7s0.8-1.7,1.7-1.7h53.2c1,0,1.7,0.8,1.7,1.7
						S464.8,481.2,463.9,481.2z"/>
				</g>
			</g>
		</g>
		<rect x="525.5" y="457.6" class="st18" width="94.3" height="79.7"/>
		<g>
			<rect x="517.9" y="550.7" class="st21" width="109.5" height="92.5"/>
			<polygon class="st21" points="726.9,596.9 711.5,551 642.8,551 642.8,642.8 720,642.8 			"/>
			<path class="st21" d="M622.2,719.2c-5.3,1.1-13.5,0.8-16.6,0.9c-14.1,0.3-28.2-2.3-41.2-7.6c-14.9-6.2-28.1-16-38.3-28.3
				c-6.2-7.5-8.2-11.6-8.2-21.1c0-0.7,0-13,0-13c0.5,0,109.5,0,109.5,0c0,17,0,34,0,51c0,3.6,1.7,13.7-0.8,16.2
				C625.7,718.2,624.2,718.8,622.2,719.2z"/>
			<path class="st21" d="M619.6,482.8c-5.3-1-13.5-0.7-16.6-0.8c-14.1-0.3-28.2,2-41.2,6.7c-14.9,5.4-28.1,14-38.3,24.8
				c-6.2,6.5-8.2,10.1-8.2,18.4c0,0.6,0,11.3,0,11.3c0.5,0,109.5,0,109.5,0c0-14.9,0-29.7,0-44.6c0-3.1,1.7-12-0.8-14.2
				C623.1,483.7,621.5,483.2,619.6,482.8z"/>
		</g>
		<g>
			<rect x="390.6" y="656.5" class="st20" width="94.3" height="79.7"/>
			<g>
				<g>
					<path class="st19" d="M464.3,715.4h-53c-1,0-1.7-0.8-1.7-1.7c0-0.9,0.8-1.7,1.7-1.7h53c1,0,1.7,0.8,1.7,1.7
						C466,714.6,465.2,715.4,464.3,715.4z"/>
				</g>
				<g>
					<path class="st19" d="M463.6,698.6h-52.3c-1,0-1.7-0.8-1.7-1.7c0-0.9,0.8-1.7,1.7-1.7h52.3c1,0,1.7,0.8,1.7,1.7
						C465.4,697.9,464.6,698.6,463.6,698.6z"/>
				</g>
				<g>
					<path class="st19" d="M464.3,680.7h-53.2c-1,0-1.7-0.8-1.7-1.7c0-0.9,0.8-1.7,1.7-1.7h53.2c1,0,1.7,0.8,1.7,1.7
						C466,680,465.2,680.7,464.3,680.7z"/>
				</g>
			</g>
		</g>
		<g>
			<path class="st19" d="M576.5,609.9c0,2.9-0.8,5.6-2.3,7.9c-1.5,2.3-3.8,4.2-6.8,5.5c-3,1.3-6.5,2-10.6,2c-4.9,0-8.9-0.9-12.1-2.7
				c-2.2-1.3-4.1-3-5.5-5.2c-1.4-2.2-2.1-4.3-2.1-6.3c0-1.2,0.4-2.2,1.3-3.1c0.8-0.8,1.9-1.3,3.2-1.3c1.1,0,2,0.3,2.7,1
				c0.7,0.7,1.4,1.6,1.9,2.9c0.6,1.5,1.3,2.8,2,3.9c0.7,1,1.8,1.9,3.1,2.6c1.3,0.7,3.1,1,5.2,1c3,0,5.4-0.7,7.2-2
				c1.9-1.4,2.8-3,2.8-5.1c0-1.6-0.5-2.9-1.5-3.9c-1-1-2.3-1.8-3.9-2.3c-1.6-0.5-3.7-1.1-6.4-1.7c-3.6-0.8-6.5-1.8-8.9-2.9
				c-2.4-1.1-4.3-2.6-5.7-4.5c-1.4-1.9-2.1-4.2-2.1-7c0-2.7,0.7-5,2.2-7.1c1.5-2.1,3.6-3.7,6.4-4.8c2.8-1.1,6.1-1.7,9.9-1.7
				c3,0,5.7,0.4,7.9,1.1c2.2,0.7,4.1,1.7,5.5,2.9c1.5,1.2,2.5,2.5,3.2,3.8c0.7,1.3,1,2.7,1,3.9c0,1.2-0.4,2.2-1.3,3.2
				c-0.8,0.9-1.9,1.4-3.2,1.4c-1.1,0-2-0.3-2.6-0.8c-0.6-0.6-1.2-1.5-1.9-2.8c-0.9-1.8-2-3.3-3.2-4.3c-1.3-1-3.3-1.5-6.1-1.5
				c-2.6,0-4.7,0.6-6.3,1.7c-1.6,1.1-2.4,2.4-2.4,4c0,1,0.3,1.8,0.8,2.5c0.5,0.7,1.3,1.3,2.2,1.8c0.9,0.5,1.9,0.9,2.9,1.2
				c1,0.3,2.6,0.7,4.8,1.3c2.8,0.6,5.3,1.3,7.6,2.1c2.3,0.8,4.2,1.7,5.8,2.8c1.6,1.1,2.8,2.5,3.7,4.2
				C576,605.4,576.5,607.5,576.5,609.9z"/>
			<path class="st19" d="M617.6,583.6H595v11.9h20.8c1.5,0,2.7,0.3,3.4,1c0.8,0.7,1.1,1.6,1.1,2.7c0,1.1-0.4,2-1.1,2.7
				c-0.7,0.7-1.9,1-3.4,1H595v13.8h23.3c1.6,0,2.8,0.4,3.6,1.1c0.8,0.7,1.2,1.7,1.2,2.9c0,1.1-0.4,2.1-1.2,2.8
				c-0.8,0.7-2,1.1-3.6,1.1h-27.2c-2.2,0-3.7-0.5-4.7-1.4c-1-0.9-1.4-2.5-1.4-4.6v-36.4c0-1.4,0.2-2.6,0.6-3.5
				c0.4-0.9,1.1-1.5,2-1.9c0.9-0.4,2.1-0.6,3.5-0.6h26.4c1.6,0,2.8,0.3,3.6,1c0.8,0.7,1.2,1.6,1.2,2.7c0,1.1-0.4,2.1-1.2,2.8
				C620.3,583.3,619.2,583.6,617.6,583.6z"/>
			<path class="st19" d="M652.8,575.2c5.1,0,9.5,1,13.2,3.1c3.7,2,6.5,4.9,8.3,8.7c1.9,3.8,2.8,8.2,2.8,13.2c0,3.7-0.5,7.1-1.6,10.2
				c-1,3.1-2.6,5.7-4.7,8c-2.1,2.2-4.6,4-7.6,5.2c-3,1.2-6.5,1.8-10.4,1.8c-3.9,0-7.3-0.6-10.4-1.8c-3.1-1.2-5.6-2.9-7.7-5.2
				c-2-2.2-3.6-4.9-4.6-8c-1-3.1-1.6-6.5-1.6-10.1c0-3.7,0.5-7.1,1.6-10.2c1.1-3.1,2.7-5.7,4.7-7.9c2.1-2.2,4.6-3.8,7.6-5
				C645.7,575.8,649,575.2,652.8,575.2z M667,600.1c0-3.5-0.6-6.6-1.8-9.2c-1.2-2.6-2.8-4.6-5-5.9c-2.2-1.3-4.7-2-7.5-2
				c-2,0-3.9,0.4-5.5,1.1c-1.7,0.7-3.2,1.8-4.4,3.2c-1.2,1.4-2.2,3.2-2.9,5.4c-0.7,2.2-1.1,4.7-1.1,7.4c0,2.8,0.4,5.2,1.1,7.5
				c0.7,2.2,1.7,4.1,3,5.5c1.3,1.5,2.8,2.6,4.5,3.3c1.7,0.7,3.5,1.1,5.5,1.1c2.6,0,4.9-0.6,7.1-1.9c2.1-1.3,3.9-3.2,5.1-5.8
				C666.4,607.2,667,604,667,600.1z"/>
		</g>
		<g>
			<path class="st3" d="M820,791.3L709,682.6l4.7-5.7c14.9-20.9,23.6-46.3,23.6-73.7c0-71.3-59.2-129.3-132-129.3s-132,58-132,129.3
				s59.2,129.3,132,129.3c32.7,0,62.6-11.7,85.7-31l110.4,108.1c2.6,2.5,6,3.8,9.3,3.8c3.4,0,6.8-1.3,9.3-3.8
				C825.2,804.5,825.2,796.3,820,791.3z M501.8,603.2c0-55.9,46.4-101.3,103.5-101.3c57.1,0,103.5,45.5,103.5,101.3
				s-46.4,101.3-103.5,101.3C548.2,704.5,501.8,659.1,501.8,603.2z"/>
			<path class="st22" d="M824.4,795.5l-111-108.7l4.7-5.7c14.9-20.9,23.6-46.3,23.6-73.7c0-71.3-59.2-129.3-132-129.3
				s-132,58-132,129.3s59.2,129.3,132,129.3c32.7,0,62.6-11.7,85.7-31l110.4,108.1c2.6,2.5,6,3.8,9.3,3.8c3.4,0,6.8-1.3,9.3-3.8
				C829.5,808.8,829.5,800.6,824.4,795.5z M506.1,607.4c0-55.9,46.4-101.3,103.5-101.3c57.1,0,103.5,45.5,103.5,101.3
				c0,55.9-46.4,101.3-103.5,101.3C552.5,708.8,506.1,663.3,506.1,607.4z"/>
			<g>
				<path class="st19" d="M810.7,815.1c-4,0-7.7-1.5-10.6-4.3l-109.3-107c-24,19.6-54.3,30.4-85.6,30.4
					c-73.7,0-133.7-58.7-133.7-130.9s60-130.9,133.7-130.9C679,472.3,739,531,739,603.2c0,26.8-8.3,52.6-23.9,74.6l-0.1,0.1
					l-3.7,4.5l109.9,107.7c2.8,2.8,4.4,6.4,4.4,10.3c0,3.9-1.6,7.6-4.4,10.3C818.4,813.5,814.7,815.1,810.7,815.1z M691,699.2
					l1.1,1.1l110.4,108.1c2.2,2.1,5.1,3.3,8.1,3.3c3.1,0,5.9-1.2,8.1-3.3c2.2-2.1,3.4-4.9,3.4-7.9c0-3-1.2-5.8-3.4-7.9L706.7,682.7
					l5.6-6.9c15.2-21.4,23.2-46.5,23.2-72.6c0-70.3-58.4-127.6-130.3-127.6S475,532.9,475,603.2s58.4,127.6,130.3,127.6
					c30.9,0,61-10.9,84.5-30.6L691,699.2z M605.3,706.2c-58,0-105.2-46.2-105.2-103c0-56.8,47.2-103,105.2-103
					c58,0,105.2,46.2,105.2,103C710.5,660,663.3,706.2,605.3,706.2z M605.3,503.6c-56.1,0-101.8,44.7-101.8,99.6
					c0,54.9,45.7,99.6,101.8,99.6c56.1,0,101.8-44.7,101.8-99.6C707,548.3,661.4,503.6,605.3,503.6z"/>
			</g>
		</g>
	</g>
</g>
<g id="_x2018_ëîé_x5F_3">
</g>
</svg>
